<svg width="1186" height="325" viewBox="0 0 1186 325" fill="none" xmlns="http://www.w3.org/2000/svg">
<path d="M892.311 34.347C900.133 15.6481 913.841 4.25313 933.448 0.15H933.47H933.508H933.546H933.583H933.621H933.659H933.696H933.734H933.772H933.809H933.847H933.885H933.922H933.96H933.998H934.035H934.073H934.111H934.148H934.186H934.224H934.261H934.299H934.337H934.375H934.412H934.45H934.488H934.525H934.563H934.601H934.638H934.676H934.714H934.751H934.789H934.827H934.864H934.902H934.94H934.977H935.015H935.053H935.09H935.128H935.166H935.203H935.241H935.279H935.316H935.354H935.392H935.43H935.467H935.505H935.543H935.58H935.618H935.656H935.693H935.731H935.769H935.806H935.844H935.882H935.919H935.957H935.995H936.032H936.07H936.108H936.145H936.183H936.221H936.258H936.296H936.334H936.372H936.409H936.447H936.485H936.522H936.56H936.598H936.635H936.673H936.711H936.748H936.786H936.824H936.861H936.899H936.937H936.974H937.012H937.05H937.087H937.125H937.163H937.2H937.238H937.276H937.314H937.351H937.389H937.427H937.464H937.502H937.54H937.577H937.615H937.653H937.69H937.728H937.766H937.803H937.841H937.879H937.916H937.954H937.992H938.029H938.067H938.105H938.142H938.18H938.218H938.255H938.293H938.331H938.369H938.406H938.444H938.482H938.519H938.557H938.595H938.632H938.67H938.708H938.745H938.783H938.821H938.858H938.896H938.934H938.971H939.009H939.047H939.084H939.122H939.16H939.197H939.235H939.273H939.311H939.348H939.386H939.424H939.461H939.499H939.537H939.574H939.612H939.65H939.687H939.725H939.763H939.8H939.838H939.876H939.913H939.951H939.989H940.026H940.064H940.102H940.139H940.177H940.215H940.252H940.29H940.328H940.366H940.403H940.441H940.479H940.516H940.554H940.592H940.629H940.667H940.705H940.742H940.78H940.818H940.855H940.893H940.931H940.968H941.006H941.044H941.081H941.119H941.157H941.194H941.232H941.27H941.308H941.345H941.383H941.421H941.458H941.496H941.534H941.571H941.609H941.647H941.684H941.722H941.76H941.797H941.835H941.873H941.91H941.948H941.986H942.023H942.061H942.099H942.136H942.174H942.212H942.25H942.287H942.325H942.363H942.4H942.438H942.476H942.513H942.551H942.589H942.626H942.664H942.702H942.739H942.777H942.815H942.852H942.89H942.928H942.965H943.003H943.041H943.078H943.116H943.154H943.191H943.229H943.267H943.305H943.342H943.38H943.418H943.455H943.493H943.531H943.568H943.606H943.644H943.681H943.719H943.757H943.794H943.832H943.87H943.907H943.945H943.983H944.02H944.058H944.096H944.133H944.171H944.209H944.247H944.284H944.322H944.36H944.397H944.435H944.473H944.51H944.548H944.586H944.623H944.661H944.699H944.736H944.774H944.812H944.849H944.887H944.925H944.962H945H945.038H945.075H945.113H945.151H945.189H945.226H945.264H945.302H945.339H945.377H945.415H945.452H945.49H945.528H945.565H945.603H945.641H945.678H945.716H945.754H945.791H945.829H945.867H945.904H945.942H945.98H946.017H946.055H946.093H946.13H946.168H946.206H946.244H946.281H946.319H946.357H946.394H946.432H946.47H946.507H946.545H946.583H946.62H946.658H946.696H946.733H946.771H946.809H946.846H946.884H946.922H946.959H946.997H947.035H947.072H947.11H947.148H947.186H947.223H947.261H947.299H947.336H947.374H947.412H947.449H947.487H947.525H947.562H947.6H947.638H947.675H947.713H947.751H947.788H947.826H947.864H947.901H947.939H947.977H948.014H948.052H948.09H948.127H948.165H948.203H948.241H948.278H948.316H948.354H948.391H948.429H948.467H948.504H948.542H948.58H948.617H948.655H948.693H948.73H948.768H948.806H948.843H948.881H948.919H948.956H948.994H949.032H949.069H949.107H949.145H949.183H949.22H949.258H949.296H949.333H949.371H949.409H949.446H949.484H949.522H949.559H949.597H949.635H949.672H949.71H949.748H949.785H949.823H949.861H949.898H949.936H949.974H950.011H950.049H950.087H950.125H950.162H950.2H950.238H950.275H950.313H950.351H950.388H950.426H950.464H950.501H950.539H950.577H950.614H950.652H950.69H950.727H950.765H950.803H950.84H950.878H950.916H950.953H950.991H951.029H951.066H951.104H951.142H951.18H951.217H951.255H951.293H951.33H951.368H951.406H951.443H951.481H951.519H951.556H951.594H951.632H951.669H951.707H951.745H951.782H951.82H951.858H951.895H951.933H951.971H952.008H952.046H952.084H952.122H952.159H952.197H952.235H952.272H952.31H952.348H952.385H952.423H952.461H952.498H952.536H952.574H952.611H952.649H952.687H952.705C958.103 1.6031 963.445 3.56233 968.732 6.02789L1065.19 61.7567L1161.64 117.484C1174.52 127.06 1182.36 139.703 1185.15 155.42V155.434V155.461V155.488V155.516V155.543V155.57V155.597V155.624V155.652V155.679V155.706V155.733V155.76V155.788V155.815V155.842V155.869V155.897V155.924V155.951V155.978V156.005V156.033V156.06V156.087V156.114V156.141V156.169V156.196V156.223V156.25V156.277V156.305V156.332V156.359V156.386V156.414V156.441V156.468V156.495V156.522V156.55V156.577V156.604V156.631V156.658V156.686V156.713V156.74V156.767V156.794V156.822V156.849V156.876V156.903V156.931V156.958V156.985V157.012V157.039V157.067V157.094V157.121V157.148V157.175V157.203V157.23V157.257V157.284V157.312V157.339V157.366V157.393V157.42V157.448V157.475V157.502V157.529V157.556V157.584V157.611V157.638V157.665V157.693V157.72V157.747V157.774V157.801V157.829V157.856V157.883V157.91V157.937V157.965V157.992V158.019V158.046V158.073V158.101V158.128V158.155V158.182V158.21V158.237V158.264V158.291V158.318V158.346V158.373V158.4V158.427V158.454V158.482V158.509V158.536V158.563V158.591V158.618V158.645V158.672V158.699V158.727V158.754V158.781V158.808V158.835V158.863V158.89V158.917V158.944V158.972V158.999V159.026V159.053V159.08V159.108V159.135V159.162V159.189V159.216V159.244V159.271V159.298V159.325V159.352V159.38V159.407V159.434V159.461V159.489V159.516V159.543V159.57V159.597V159.625V159.652V159.679V159.706V159.733V159.761V159.788V159.815V159.842V159.87V159.897V159.924V159.951V159.978V160.006V160.033V160.06V160.087V160.114V160.142V160.169V160.196V160.223V160.251V160.278V160.305V160.332V160.359V160.387V160.414V160.441V160.468V160.495V160.523V160.55V160.577V160.604V160.632V160.659V160.686V160.713V160.74V160.768V160.795V160.822V160.849V160.876V160.904V160.931V160.958V160.985V161.013V161.04V161.067V161.094V161.121V161.149V161.176V161.203V161.23V161.257V161.285V161.312V161.339V161.366V161.394V161.421V161.448V161.475V161.502V161.53V161.557V161.584V161.611V161.638V161.666V161.693V161.72V161.747V161.775V161.802V161.829V161.856V161.883V161.911V161.938V161.965V161.992V162.019V162.047V162.074V162.101V162.128V162.156V162.183V162.21V162.237V162.264V162.292V162.319V162.346V162.373V162.4V162.428V162.455V162.482V162.509V162.536V162.564V162.591V162.618V162.645V162.673V162.7V162.727V162.754V162.781V162.809V162.836V162.863V162.89V162.917V162.945V162.972V162.999V163.026V163.054V163.081V163.108V163.135V163.162V163.19V163.217V163.244V163.271V163.298V163.326V163.353V163.38V163.407V163.435V163.462V163.489V163.516V163.543V163.571V163.598V163.625V163.652V163.679V163.707V163.734V163.761V163.788V163.816V163.843V163.87V163.897V163.924V163.952V163.979V164.006V164.033V164.06V164.088V164.115V164.142V164.169V164.197V164.224V164.251V164.278V164.305V164.333V164.36V164.387V164.414V164.441V164.469V164.496V164.523V164.55V164.578V164.605V164.632V164.659V164.686V164.714V164.741V164.768V164.795V164.822V164.85V164.877V164.904V164.931V164.959V164.986V165.013V165.04V165.067V165.095V165.122V165.149V165.176V165.203V165.231V165.258V165.285V165.312V165.34V165.367V165.394V165.421V165.448V165.476V165.503V165.53V165.557V165.584V165.612V165.639V165.666V165.693V165.721V165.748V165.775V165.802V165.829V165.857V165.884V165.911V165.938V165.965V165.993V166.02V166.047V166.074V166.101V166.129V166.156V166.183V166.21V166.238V166.265V166.292V166.319V166.346V166.374V166.401V166.428V166.455V166.482V166.51V166.537V166.564V166.591V166.619V166.646V166.673V166.7V166.727V166.755V166.782V166.809V166.836V166.863V166.891V166.918V166.945V166.972V167V167.027V167.054V167.081V167.108V167.136V167.163V167.19V167.217V167.244V167.272V167.299V167.326V167.353V167.38V167.408V167.435V167.462V167.489V167.517V167.544V167.571V167.598V167.625V167.653V167.68V167.707V167.734V167.761V167.789V167.816V167.843V167.87V167.898V167.925V167.952V167.979V168.006V168.034V168.061V168.088V168.115V168.142V168.17V168.197V168.224V168.251V168.278V168.306V168.333V168.36V168.387V168.415V168.442V168.469V168.496V168.523V168.551V168.578V168.605V168.632V168.659V168.687V168.714V168.741V168.768V168.796V168.823V168.85V168.877V168.904V168.932V168.959V168.986V169.013V169.04V169.068V169.095V169.122V169.149V169.176V169.204V169.231V169.258V169.285V169.313V169.327C1181.72 190.029 1170.33 204.63 1150.95 213.142C1136.54 217.797 1122.29 217.263 1108.2 211.54C1079.74 194.99 1051.16 178.736 1022.46 162.779C986.801 141.369 950.721 120.47 914.222 100.084C902.89 91.7554 895.406 82.1161 891.757 71.1682C888.107 60.2199 888.288 47.9483 892.311 34.347Z" fill="#139D59" stroke="black" stroke-width="0.3"/>
<path d="M1108.06 211.804L1108.06 211.81L1108.07 211.814C1121.83 217.402 1135.74 218.07 1149.79 213.818C1090.39 248.667 1030.75 283.277 970.873 317.648C965.268 320.518 959.569 322.834 953.774 324.597H953.754H953.713H953.671H953.629H953.587H953.545H953.503H953.461H953.419H953.378H953.336H953.294H953.252H953.21H953.168H953.126H953.085H953.043H953.001H952.959H952.917H952.875H952.833H952.791H952.75H952.708H952.666H952.624H952.582H952.54H952.498H952.457H952.415H952.373H952.331H952.289H952.247H952.205H952.163H952.122H952.08H952.038H951.996H951.954H951.912H951.87H951.828H951.787H951.745H951.703H951.661H951.619H951.577H951.535H951.494H951.452H951.41H951.368H951.326H951.284H951.242H951.2H951.159H951.117H951.075H951.033H950.991H950.949H950.907H950.866H950.824H950.782H950.74H950.698H950.656H950.614H950.572H950.531H950.489H950.447H950.405H950.363H950.321H950.279H950.238H950.196H950.154H950.112H950.07H950.028H949.986H949.944H949.903H949.861H949.819H949.777H949.735H949.693H949.651H949.61H949.568H949.526H949.484H949.442H949.4H949.358H949.317H949.275H949.233H949.191H949.149H949.107H949.065H949.023H948.982H948.94H948.898H948.856H948.814H948.772H948.73H948.689H948.647H948.605H948.563H948.521H948.479H948.437H948.395H948.354H948.312H948.27H948.228H948.186H948.144H948.102H948.061H948.019H947.977H947.935H947.893H947.851H947.809H947.767H947.726H947.684H947.642H947.6H947.558H947.516H947.474H947.433H947.391H947.349H947.307H947.265H947.223H947.181H947.139H947.098H947.056H947.014H946.972H946.93H946.888H946.846H946.805H946.763H946.721H946.679H946.637H946.595H946.553H946.512H946.47H946.428H946.386H946.344H946.302H946.26H946.218H946.177H946.135H946.093H946.051H946.009H945.967H945.925H945.884H945.842H945.8H945.758H945.716H945.674H945.632H945.59H945.549H945.507H945.465H945.423H945.381H945.339H945.297H945.256H945.214H945.172H945.13H945.088H945.046H945.004H944.962H944.921H944.879H944.837H944.795H944.753H944.711H944.669H944.628H944.586H944.544H944.502H944.46H944.418H944.376H944.335H944.293H944.251H944.209H944.167H944.125H944.083H944.041H944H943.958H943.916H943.874H943.832H943.79H943.748H943.707H943.665H943.623H943.581H943.539H943.497H943.455H943.413H943.372H943.33H943.288H943.246H943.204H943.162H943.12H943.079H943.037H942.995H942.953H942.911H942.869H942.827H942.786H942.744H942.702H942.66H942.618H942.576H942.534H942.492H942.451H942.409H942.367H942.325H942.283H942.241H942.199H942.158H942.116H942.074H942.032H941.99H941.948H941.906H941.864H941.823H941.781H941.739H941.697H941.655H941.613H941.571H941.53H941.488H941.446H941.404H941.362H941.32H941.278H941.237H941.195H941.153H941.111H941.069H941.027H940.985H940.943H940.902H940.86H940.818H940.776H940.734H940.692H940.65H940.609H940.567H940.525H940.483H940.441H940.399H940.357H940.315H940.274H940.232H940.19H940.148H940.106H940.064H940.022H939.981H939.939H939.897H939.855H939.813H939.771H939.729H939.687H939.646H939.604H939.562H939.52H939.478H939.436H939.394H939.353H939.311H939.269H939.227H939.185H939.143H939.101H939.06H939.018H938.976H938.934H938.892H938.85H938.808H938.766H938.725H938.683H938.641H938.599H938.557H938.515H938.473H938.432H938.39H938.348H938.306H938.264H938.222H938.18H938.138H938.097H938.055H938.013H937.971H937.929H937.887H937.845H937.804H937.762H937.72H937.678H937.636H937.594H937.552H937.51H937.469H937.427H937.385H937.343H937.301H937.259H937.217H937.176H937.134H937.092H937.05H937.008H936.966H936.924H936.882H936.841H936.799H936.757H936.715H936.673H936.631H936.589H936.548H936.506H936.464H936.422H936.38H936.338H936.296H936.255H936.213H936.171H936.129H936.087H936.045H936.003H935.961H935.92H935.878H935.836H935.794H935.752H935.71H935.668H935.627H935.585H935.543H935.501H935.459H935.417H935.375H935.333H935.292H935.25H935.208H935.166H935.124H935.082H935.04H934.999H934.957H934.915H934.873H934.831H934.789H934.747H934.705H934.664H934.622H934.58H934.538H934.496H934.454H934.412H934.371H934.329H934.287H934.245H934.203H934.161H934.119H934.077H934.036H933.994H933.952H933.91H933.868H933.826H933.784H933.743H933.701H933.659H933.617H933.575H933.533H933.491H933.449H933.408H933.366H933.324H933.282H933.24H933.198H933.156H933.114H933.073H933.031H932.989H932.947H932.905H932.863H932.821H932.78H932.738H932.696H932.654H932.612H932.57H932.528H932.486H932.445H932.403H932.383C916.215 319.72 904.627 311.849 897.598 300.995C890.568 290.139 888.087 276.277 890.174 259.395C893.589 245.293 901.247 234.074 913.15 225.734C949.418 204.566 985.831 183.682 1022.39 163.081C1051.06 179.026 1079.62 195.268 1108.06 211.804Z" fill="#FBBC0A" stroke="black" stroke-width="0.3"/>
<path d="M74.0255 111.869L74.0156 111.864L74.0051 111.86C62.7189 107.601 51.2609 107.062 39.6357 110.242C39.3125 110.239 39.0955 110.156 38.9577 110.018C38.8295 109.89 38.7488 109.693 38.7356 109.406C96.1611 76.0457 153.653 42.6571 211.214 9.23977L211.215 9.23926C218.364 5.02358 225.847 1.99403 233.663 0.15H233.682H233.717H233.753H233.788H233.824H233.859H233.895H233.931H233.966H234.002H234.037H234.073H234.109H234.144H234.18H234.215H234.251H234.287H234.322H234.358H234.393H234.429H234.464H234.5H234.536H234.571H234.607H234.642H234.678H234.714H234.749H234.785H234.82H234.856H234.892H234.927H234.963H234.998H235.034H235.069H235.105H235.141H235.176H235.212H235.247H235.283H235.319H235.354H235.39H235.425H235.461H235.496H235.532H235.568H235.603H235.639H235.674H235.71H235.746H235.781H235.817H235.852H235.888H235.924H235.959H235.995H236.03H236.066H236.101H236.137H236.173H236.208H236.244H236.279H236.315H236.351H236.386H236.422H236.457H236.493H236.529H236.564H236.6H236.635H236.671H236.706H236.742H236.778H236.813H236.849H236.884H236.92H236.956H236.991H237.027H237.062H237.098H237.133H237.169H237.205H237.24H237.276H237.311H237.347H237.383H237.418H237.454H237.489H237.525H237.561H237.596H237.632H237.667H237.703H237.738H237.774H237.81H237.845H237.881H237.916H237.952H237.988H238.023H238.059H238.094H238.13H238.165H238.201H238.237H238.272H238.308H238.343H238.379H238.415H238.45H238.486H238.521H238.557H238.592H238.628H238.664H238.699H238.735H238.77H238.806H238.842H238.877H238.913H238.948H238.984H239.02H239.055H239.091H239.126H239.162H239.197H239.233H239.269H239.304H239.34H239.375H239.411H239.447H239.482H239.518H239.553H239.589H239.624H239.66H239.696H239.731H239.767H239.802H239.838H239.874H239.909H239.945H239.98H240.016H240.052H240.087H240.123H240.158H240.194H240.229H240.265H240.301H240.336H240.372H240.407H240.443H240.479H240.514H240.55H240.585H240.621H240.656H240.692H240.728H240.763H240.799H240.834H240.87H240.906H240.941H240.977H241.012H241.048H241.083H241.119H241.155H241.19H241.226H241.261H241.297H241.333H241.368H241.404H241.439H241.475H241.511H241.546H241.582H241.617H241.653H241.688H241.724H241.76H241.795H241.831H241.866H241.902H241.938H241.973H242.009H242.044H242.08H242.115H242.151H242.187H242.222H242.258H242.293H242.329H242.365H242.4H242.436H242.471H242.507H242.542H242.578H242.614H242.649H242.685H242.72H242.756H242.792H242.827H242.863H242.898H242.934H242.969H243.005H243.041H243.076H243.112H243.147H243.183H243.219H243.254H243.29H243.325H243.361H243.397H243.432H243.468H243.503H243.539H243.574H243.61H243.646H243.681H243.717H243.752H243.788H243.824H243.859H243.895H243.93H243.966H244.001H244.037H244.073H244.108H244.144H244.179H244.215H244.251H244.286H244.322H244.357H244.393H244.428H244.464H244.5H244.535H244.571H244.606H244.642H244.678H244.713H244.749H244.784H244.82H244.856H244.891H244.927H244.962H244.998H245.033H245.069H245.105H245.14H245.176H245.211H245.247H245.283H245.318H245.354H245.389H245.425H245.46H245.496H245.532H245.567H245.603H245.638H245.674H245.71H245.745H245.781H245.816H245.852H245.887H245.923H245.959H245.994H246.03H246.065H246.101H246.137H246.172H246.208H246.243H246.279H246.315H246.35H246.386H246.421H246.457H246.492H246.528H246.564H246.599H246.635H246.67H246.706H246.742H246.777H246.813H246.848H246.884H246.919H246.955H246.991H247.026H247.062H247.097H247.133H247.169H247.204H247.24H247.275H247.311H247.346H247.382H247.418H247.453H247.489H247.524H247.56H247.596H247.631H247.667H247.702H247.738H247.774H247.809H247.845H247.88H247.916H247.951H247.987H248.023H248.058H248.094H248.129H248.165H248.201H248.236H248.272H248.307H248.343H248.378H248.414H248.45H248.485H248.521H248.556H248.592H248.628H248.663H248.699H248.734H248.77H248.806H248.841H248.877H248.912H248.948H248.983H249.019H249.055H249.09H249.126H249.161H249.197H249.233H249.268H249.304H249.339H249.375H249.41H249.446H249.482H249.517H249.553H249.588H249.624H249.66H249.695H249.731H249.766H249.802H249.838H249.873H249.909H249.944H249.98H250.015H250.051H250.087H250.122H250.158H250.193H250.229H250.265H250.3H250.336H250.371H250.407H250.443H250.478H250.514H250.549H250.585H250.62H250.656H250.692H250.727H250.763H250.798H250.834H250.87H250.905H250.941H250.976H251.012H251.048H251.083H251.119H251.154H251.19H251.225H251.261H251.297H251.332H251.368H251.403H251.439H251.475H251.51H251.546H251.581H251.617H251.652H251.688H251.724H251.759H251.795H251.83H251.844C270.374 5.82679 283.048 14.8105 289.898 27.0863C296.75 39.3654 297.788 54.9664 292.986 73.9075C288.773 85.2389 281.473 93.9619 271.082 100.081L271.151 100.199L271.082 100.081C235.314 121.176 199.256 141.705 162.91 161.666C133.34 145.093 103.712 128.494 74.0255 111.869Z" fill="#EA4436" stroke="black" stroke-width="0.3"/>
<path fill-rule="evenodd" clip-rule="evenodd" d="M162.909 161.837C198.574 183.249 234.657 204.149 271.158 224.536C294.536 241.442 301.861 263.771 293.129 291.522C285.039 309.084 271.642 320.159 252.938 324.747C245.792 324.747 238.648 324.747 231.502 324.747C226.492 323.129 221.491 321.165 216.498 318.852C152.191 281.697 87.8852 244.543 23.5789 207.388C9.7262 197.004 1.86655 183.249 0 166.125C0 163.981 0 161.837 0 159.694C2.09999 137.625 13.175 121.905 33.2249 112.536C35.6746 112.434 37.8182 111.719 39.6555 110.392C51.2569 107.215 62.6891 107.751 73.9521 112C103.663 128.638 133.315 145.251 162.909 161.837Z" fill="#4485F3"/>
<path fill-rule="evenodd" clip-rule="evenodd" d="M270.996 224.789C234.499 204.404 198.42 183.507 162.759 162.097C133.173 145.515 103.528 128.907 73.8252 112.273C62.645 108.059 51.3019 107.524 39.7867 110.668C37.923 112 35.7567 112.721 33.2978 112.833C13.3828 122.158 2.39144 137.772 0.3 159.708V166.108C2.16004 183.136 9.97118 196.808 23.7446 207.137C54.2313 224.752 84.7181 242.366 115.205 259.981L127.382 267.016C157.133 284.206 186.885 301.395 216.636 318.585C221.6 320.884 226.57 322.837 231.55 324.447H252.902C271.492 319.878 284.801 308.872 292.849 291.413C297.195 277.591 297.536 265.143 293.9 254.056C290.263 242.969 282.638 233.212 270.996 224.789ZM271.158 224.536C234.657 204.149 198.574 183.249 162.909 161.837C133.315 145.251 103.663 128.638 73.9521 112C62.6891 107.751 51.2569 107.215 39.6555 110.392C37.8182 111.719 35.6746 112.434 33.2249 112.536C13.1749 121.905 2.09999 137.625 0 159.694V166.125C1.86655 183.249 9.7262 197.004 23.5789 207.388C55.942 226.087 88.3051 244.785 120.668 263.484C152.611 281.94 184.554 300.396 216.498 318.852C221.491 321.165 226.492 323.129 231.502 324.747H252.938C271.642 320.159 285.039 309.084 293.129 291.522C301.861 263.771 294.536 241.442 271.158 224.536Z" fill="black"/>
</svg>
