<svg width="426" height="316" viewBox="0 0 426 316" fill="none" xmlns="http://www.w3.org/2000/svg">
<path d="M238.67 0.506466C236.994 1.05112 235.588 3.57635 235.588 6.10157C235.588 9.17145 234.453 11.1025 232.777 10.8549C232.506 10.8549 232.344 11.0035 232.344 11.3006C232.344 11.9442 226.559 18.7772 225.261 19.6189C224.721 19.9655 224.234 20.5597 224.234 20.9558C224.234 21.3024 223.802 21.7481 223.261 21.8966C222.774 22.0451 221.585 22.7879 220.612 23.5306C219.693 24.3228 218.125 25.5111 217.152 26.2043C216.124 26.8975 214.827 28.3334 214.232 29.4228C213.637 30.4626 212.61 32.0965 211.907 33.0373C211.258 33.9781 210.393 35.7111 210.069 36.8994C209.745 38.1373 209.204 39.0285 208.771 39.0285C207.906 39.0285 207.744 39.8207 208.555 40.2664C209.204 40.613 208.934 41.7518 207.474 44.6731C206.825 45.9605 206.663 47.0498 206.933 47.8916C207.149 48.5848 207.149 50.2682 206.987 51.6546C206.771 53.4867 206.987 55.0216 207.906 57.5468C209.474 61.9536 209.42 62.2012 207.366 63.8846L205.582 65.271L208.177 64.1817L210.718 63.0924L212.772 64.8749C213.854 65.8652 216.611 67.4992 218.828 68.4895C221.044 69.5293 223.261 70.6186 223.694 70.9652C224.126 71.3118 224.937 71.7079 225.478 71.7574C226.451 71.9555 226.451 72.0545 225.316 73.2923C224.018 74.8273 222.558 75.0749 221.531 73.936C221.152 73.4904 220.504 73.2428 220.179 73.3914C219.801 73.4904 219.26 73.3914 218.99 73.1438C218.665 72.8467 218.017 73.0943 217.26 73.738C216.124 74.7283 216.124 74.8273 216.935 75.669C217.8 76.5108 217.746 76.6098 216.827 77.0554C215.476 77.6991 213.367 76.9069 213.043 75.6195C212.826 74.8273 212.448 74.6787 211.475 74.8768C210.772 75.0749 210.177 75.0253 210.177 74.8273C210.123 74.5797 209.528 73.738 208.771 72.9457L207.42 71.4603L208.555 73.7875C209.15 75.0749 209.474 76.4612 209.258 76.9564C209.042 77.501 209.096 77.6991 209.528 77.4515C209.853 77.303 210.285 77.402 210.447 77.6991C211.096 78.5904 210.339 78.7389 208.447 77.9962C207.474 77.6001 205.095 77.2535 203.203 77.2535C201.364 77.2535 199.472 76.9564 199.04 76.6098C198.12 75.9166 195.579 76.7583 195.579 77.7486C195.579 78.0952 194.66 78.937 193.525 79.5806C192.444 80.2738 191.2 81.1651 190.767 81.5612C190.119 82.2544 190.065 82.2049 190.335 81.2146C190.497 80.6204 190.389 80.1253 190.119 80.1253C189.848 80.1253 189.632 80.4719 189.632 80.868C189.632 81.2641 189.145 81.6107 188.551 81.6107C187.794 81.6107 187.469 81.2641 187.469 80.5709C187.469 79.6302 187.361 79.5806 186.55 80.1748C186.064 80.5709 184.496 80.868 183.036 80.868C180.711 80.868 180.441 80.769 180.441 79.7292C180.441 79.135 180.171 78.6399 179.846 78.6399C179.576 78.6399 179.468 78.3428 179.63 77.9962C179.846 77.6991 179.576 77.8476 179.143 78.3428C178.657 78.8874 178.278 79.4816 178.278 79.6797C178.278 79.8777 177.251 80.4719 176.007 81.0166C173.629 82.0068 172.331 81.7593 172.331 80.3234C172.331 78.8379 169.574 78.4418 163.626 79.0855C161.193 79.3826 158.598 79.9768 157.841 80.4224C156.76 81.0661 156.436 81.1156 156.057 80.5709C155.733 80.0758 155.895 79.8282 156.544 79.6797C157.03 79.5806 158.923 78.5904 160.707 77.402C164.437 75.0253 166.113 74.3817 166.654 75.1739C166.816 75.4215 167.411 75.669 167.898 75.669C168.6 75.6195 168.492 75.471 167.519 74.9758L166.167 74.2826L168.06 73.4409C169.087 72.9457 170.655 72.005 171.574 71.4108C172.493 70.7671 173.629 70.2225 174.115 70.2225C174.602 70.2225 175.142 69.9749 175.305 69.7273C175.845 68.9351 176.548 69.1331 176.927 70.1729C177.305 71.3613 179.197 71.8069 180.603 71.1137C181.252 70.8166 182.658 70.5195 183.793 70.47C184.928 70.371 186.496 69.8263 187.253 69.2817C188.064 68.6875 188.929 68.2419 189.254 68.2419C189.578 68.2419 190.335 67.8458 190.93 67.3011C192.444 66.1128 195.796 65.073 196.012 65.7662C196.12 66.0138 196.444 66.2613 196.769 66.2613C197.093 66.2613 197.147 65.9147 196.985 65.5186C196.769 65.0235 197.093 64.5778 197.904 64.3303C199.364 63.7856 201.364 61.8546 201.472 60.8148C202.067 54.7245 202.121 52.942 201.581 50.1197C201.202 48.3372 200.553 46.3071 200.121 45.6634C199.472 44.7722 199.31 43.6333 199.526 40.6625C199.688 38.5334 199.634 37.6916 199.472 38.7809L199.094 40.7615L198.12 39.4246C197.526 38.6819 197.309 37.7907 197.526 37.4441C197.796 36.9489 197.742 36.8994 197.147 37.3945C196.174 38.2858 195.687 38.1868 194.985 36.9984C194.552 36.2062 194.552 35.8596 195.039 35.5625C195.525 35.3149 195.525 35.1169 195.093 34.8693C194.768 34.6713 194.498 34.7703 194.498 35.0179C194.498 35.3149 194.228 35.5625 193.903 35.5625C193.579 35.5625 193.417 35.2159 193.633 34.8198C193.795 34.3742 193.633 34.0771 193.146 34.0771C192.173 34.0771 192.119 33.4829 192.984 32.6907C193.471 32.2451 193.471 31.948 192.984 31.5024C192.498 31.0567 192.335 31.1062 192.335 31.7499C192.335 32.1956 191.957 32.5917 191.524 32.5917C191.038 32.5917 190.713 32.146 190.713 31.4033C190.713 30.7101 190.497 30.0169 190.173 29.8684C189.902 29.7198 189.632 28.3334 189.632 26.848C189.632 24.917 189.416 24.1743 188.875 24.1743C188.497 24.1743 188.01 24.6199 187.848 25.1645C187.686 25.7092 187.253 26.1548 186.929 26.1548C186.496 26.1548 186.388 25.7092 186.604 24.917C186.821 24.2238 186.767 23.6791 186.55 23.6791C185.847 23.6791 184.766 21.1044 184.766 19.5199C184.766 18.7277 185.145 17.6879 185.631 17.1928C186.064 16.7471 186.767 14.8161 187.091 12.9345C187.415 11.1025 187.956 9.41902 188.28 9.17145C188.659 8.92388 188.605 8.67631 188.172 8.42874C187.794 8.23068 187.524 7.19088 187.578 6.2006C187.632 5.1608 187.415 4.121 187.145 3.87343C186.875 3.62586 184.928 3.87343 182.441 4.4676C178.765 5.40837 177.738 5.90351 174.44 8.62679C169.52 12.5879 168.384 13.0831 166.492 12.4889C165.194 12.0433 165.032 11.7462 165.14 10.0132C165.248 8.62679 165.14 8.2802 164.762 8.82485C164.491 9.22096 164.221 9.96368 164.221 10.5083C164.221 11.0035 162.491 13.0336 160.382 15.0141C157.138 18.084 156.706 18.7277 157.463 19.1238C158.49 19.6189 158.815 19.2723 152.921 23.283C147.19 27.1451 146.542 28.383 148.596 31.4033C149.407 32.6907 149.786 34.2256 150.002 37.7411C150.272 41.8508 150.218 42.544 149.245 43.7819C148.65 44.5741 147.677 46.2081 147.082 47.4459C146.488 48.6838 145.46 50.1692 144.811 50.7634C144.217 51.3575 143.298 52.7935 142.811 53.9818C142.324 55.1701 141.622 56.8041 141.189 57.6459C139.243 61.7555 137.513 66.9545 136.81 71.2127C135.566 78.0952 135.08 79.6302 134.161 79.6302C133.566 79.6302 133.404 79.3331 133.674 78.4913C133.89 77.8972 134.269 77.204 134.539 76.9069C134.809 76.6593 135.026 75.57 135.026 74.5302C135.026 73.0448 134.809 72.5496 133.944 72.3516C133.35 72.203 132.863 71.8069 132.863 71.4603C132.863 70.7176 131.241 70.0739 130.106 70.3215C129.727 70.4205 128.916 70.8661 128.321 71.3118C127.727 71.8069 126.645 72.203 125.888 72.203C125.132 72.203 123.185 72.7477 121.617 73.4409C119.995 74.1341 118.373 74.6787 117.941 74.6787C117.508 74.6787 116.697 75.1244 116.048 75.7185C115.237 76.4612 115.021 77.0554 115.292 78.1942C115.616 79.3826 115.4 79.8282 114.318 80.67C113.561 81.1651 112.426 82.3534 111.831 83.2942C110.534 85.2253 109.02 85.7699 107.614 84.7796C106.208 83.8389 105.83 83.9379 105.83 85.2748C105.83 85.9185 105.452 86.7107 105.019 87.0573C104.37 87.5524 104.208 87.5524 104.208 87.0078C104.262 85.4728 105.83 77.204 106.587 74.5302C108.317 68.7865 107.452 66.1623 102.802 62.5478C101.234 61.3099 99.6124 59.6759 99.234 58.9332C96.8551 54.3779 87.2313 55.3187 82.9061 60.5672C80.9056 62.9439 77.4454 69.0341 76.5804 71.6089C75.9856 73.5399 76.0397 73.7875 77.3373 75.57C78.6349 77.2535 78.7971 77.8972 78.8511 82.3534C78.9052 85.0767 78.9052 88.4932 78.8511 89.9786L78.7971 92.6524L76.9588 90.9194C75.9856 89.9786 74.9584 88.4932 74.7421 87.6515C74.3637 85.8689 74.2015 85.8194 72.3092 86.8097C71.5522 87.2058 69.4437 87.5524 67.4432 87.5524C61.9826 87.6019 58.8468 89.6815 57.9817 93.7417C57.7654 94.831 57.5492 97.5048 57.4951 99.6834C57.441 103.199 57.6573 103.942 59.063 106.269C59.9281 107.705 61.6041 109.537 62.7936 110.378C65.8753 112.458 68.4164 112.26 65.8753 110.131C64.3074 108.844 63.5505 106.764 63.7668 104.338C63.929 102.456 64.1993 102.011 66.47 100.426C69.714 98.198 74.9584 96.7126 76.8507 97.5048C78.5267 98.198 80.9597 102.308 80.9597 104.387C80.9597 105.922 81.0138 105.972 82.7439 105.675C83.663 105.526 84.7984 105.576 85.2309 105.823C86.096 106.318 84.528 107.952 79.8784 111.319C78.5808 112.26 76.8507 113.646 76.0397 114.389C75.2287 115.181 74.0393 115.776 73.3905 115.776C72.7417 115.776 71.7144 116.023 71.1197 116.32C70.2006 116.766 70.1465 116.964 70.7412 117.31C71.2819 117.608 71.0656 117.756 70.0384 117.756C69.2274 117.756 68.4164 117.954 68.2542 118.251C68.038 118.548 68.7949 118.746 70.0925 118.746C71.7144 118.746 72.4173 118.994 72.8498 119.737C73.5527 120.975 73.1201 121.717 71.6604 121.717C70.8494 121.717 70.6331 121.47 70.8494 120.727C71.1738 119.489 69.714 119.341 69.2274 120.529C68.7949 121.569 70.3628 122.708 71.7685 122.361C73.1742 122.014 73.1742 123.252 71.8226 124.044C71.2278 124.391 70.6331 125.332 70.4169 126.174C70.0384 127.659 68.5786 128.402 66.2538 128.253C65.7131 128.253 65.1725 128.402 65.0103 128.699C64.794 128.946 64.0371 129.144 63.2802 129.144C60.9553 129.144 57.7114 130.135 52.467 132.462C49.3312 133.799 46.4116 134.739 44.6815 134.888C41.1672 135.185 39.7615 135.878 36.2472 138.948C32.0301 142.612 32.4086 143.702 37.8692 143.751C40.5725 143.751 41.1672 143.949 42.0863 144.989C44.8978 148.257 44.9518 151.03 42.1945 154.1C38.8424 157.764 37.9233 158.952 36.4094 161.576C35.5984 162.913 34.0846 165.389 33.1114 167.023C32.0842 168.657 30.7325 171.033 30.0837 172.321C29.4349 173.658 28.7321 174.697 28.4618 174.697C28.1914 174.697 27.9752 174.895 27.9752 175.193C27.9752 175.44 28.1374 175.638 28.4077 175.638C29.3809 175.49 29.5431 175.787 29.0024 177.025C28.678 177.817 28.1914 181.431 27.9752 185.095C27.6508 190.393 27.3264 192.225 26.4073 193.859C25.8125 194.998 25.2719 196.286 25.2719 196.682C25.2719 197.078 24.7312 198.019 24.0284 198.811C23.3255 199.554 22.1901 201.088 21.4332 202.178C17.4864 208.12 16.9998 208.615 13.107 211.338C8.72771 214.358 7.8086 215.25 5.97036 218.27C5.21343 219.508 3.75366 221.637 2.7264 223.073C-0.73381 227.777 1.10443 230.946 6.24069 229.163C7.6464 228.668 9.64683 227.975 10.6741 227.678C15.2156 226.192 16.1347 225.648 17.7026 223.37C18.6218 222.083 19.3246 220.449 19.3246 219.755C19.3246 218.072 20.9466 216.685 24.8934 215.051C26.6235 214.358 28.1914 213.418 28.3536 213.021C28.5158 212.675 28.8943 212.328 29.2187 212.328C30.7325 212.328 43.3299 204.356 46.5197 201.336C47.0604 200.841 48.1417 200.148 49.0068 199.702C50.4666 199.058 50.5747 199.058 50.845 199.95C51.0072 200.494 50.791 201.138 50.3584 201.485C49.9259 201.831 49.6015 202.97 49.6015 204.257C49.6015 206.684 51.3857 208.862 53.3861 208.862C54.7378 208.862 54.7378 208.763 53.4402 206.486C52.8995 205.495 52.2507 203.267 52.0345 201.633L51.656 198.613L53.9268 196.929C56.4679 194.998 59.1712 190.443 59.6577 187.373L59.9281 185.343L58.198 187.225C57.2789 188.264 55.7109 189.403 54.6837 189.799C53.5483 190.245 52.5211 191.186 51.8182 192.424C50.2503 195.196 46.6279 198.91 43.7083 200.791C42.3567 201.633 40.0318 203.465 38.5721 204.852C36.7338 206.535 34.2468 208.07 30.7325 209.704C27.7589 211.041 24.1906 213.17 22.3523 214.655C20.5681 216.141 18.8921 217.23 18.5677 217.131C16.4591 216.487 16.9457 212.081 19.4868 208.565C20.46 207.278 21.8117 205.297 22.5145 204.208C23.2174 203.069 24.8393 200.989 26.0288 199.554C27.2723 198.068 28.678 196.236 29.1646 195.394C29.6512 194.553 30.7325 193.216 31.5976 192.424C32.8952 191.186 33.0033 190.889 32.3545 189.948C31.5976 188.809 30.9488 178.807 31.6516 177.965C31.8679 177.668 32.4086 176.529 32.787 175.44C33.7061 172.915 36.7879 168.162 39.329 165.29C40.4103 164.052 42.1945 161.428 43.2758 159.447C45.925 154.496 47.2767 152.911 49.4934 152.069C51.8723 151.178 54.2512 149.544 58.7386 145.88C60.6309 144.296 62.4692 143.008 62.8476 143.008C63.172 143.008 63.929 142.513 64.5237 141.969C66.5782 139.839 72.3092 138.602 72.3092 140.285C72.3092 140.681 72.6876 141.028 73.1201 141.028C73.5527 141.028 73.9311 140.731 73.9311 140.384C73.9311 140.037 74.4177 139.493 75.0125 139.146C75.9316 138.651 76.0938 138.651 76.0938 139.344C76.0938 139.74 76.31 139.988 76.5804 139.839C76.8507 139.691 77.3373 139.889 77.7157 140.285C78.2023 140.83 78.1483 141.226 77.4995 142.117C77.0129 142.711 76.6344 143.751 76.6344 144.345C76.6344 145.484 75.3909 145.93 74.7421 144.989C74.5259 144.692 73.8771 144.84 73.0661 145.286C72.3632 145.732 71.8766 146.227 71.9848 146.375C72.147 146.524 72.6876 146.326 73.1201 145.979C73.7689 145.484 74.1474 145.484 74.5799 145.88C74.9584 146.227 75.6612 146.474 76.1478 146.474C77.067 146.474 77.6617 148.108 77.8779 151.03C77.932 151.822 78.1483 152.416 78.3105 152.416C78.6889 152.416 80.0946 149.841 80.6894 147.96C81.23 146.425 83.2305 143.454 84.2577 142.711C84.6902 142.414 85.6094 142.018 86.3122 141.87C87.5017 141.622 87.5557 141.671 87.2313 143.553C87.0151 144.89 87.0691 145.435 87.4476 145.236C87.7179 145.088 87.9883 145.286 87.9883 145.732C87.9883 146.177 87.772 146.425 87.4476 146.227C87.1773 146.078 86.6907 146.92 86.3663 148.059C86.0419 149.247 85.5553 150.832 85.285 151.624C84.5821 153.456 84.5821 153.357 85.6634 153.208C86.2582 153.109 86.7988 152.367 87.0691 151.228C87.3935 150.039 88.0423 149.198 89.0155 148.752C89.8806 148.306 90.7456 147.316 91.1781 146.128C92.5839 142.464 94.6384 140.731 95.125 142.86C95.3953 144.147 97.2335 141.325 97.5038 139.196C97.666 138.205 97.8823 137.265 97.9904 137.017C98.477 136.324 101.234 137.364 101.883 138.552C102.532 139.74 102.532 139.74 102.478 138.255C102.424 136.175 103.073 134.591 103.992 134.591C105.073 134.591 105.776 136.472 105.776 139.394C105.776 140.681 105.992 142.86 106.317 144.246C106.857 146.87 106.587 147.663 104.478 150.039C103.83 150.733 102.478 152.862 101.559 154.743C100.586 156.575 99.288 159.001 98.6392 160.091C96.3685 164.052 96.0981 164.597 95.2331 166.874C94.5843 168.657 94.0436 169.251 93.2326 169.251C92.3676 169.251 92.2595 169.498 92.4757 170.588C92.6379 171.33 92.3135 173.856 91.7729 176.183C90.4753 181.778 89.9346 195.989 90.9619 197.276C91.5566 198.019 91.881 198.068 93.0164 197.622C94.8006 196.88 98.8014 191.334 98.8014 189.651C98.8014 188.908 98.9636 187.125 99.1799 185.69C99.4502 183.263 99.6665 182.966 101.613 182.075C103.397 181.233 104.046 180.441 105.83 176.975C107.452 173.856 108.371 172.618 109.993 171.628C111.561 170.687 112.318 169.647 113.291 167.369C114.426 164.696 114.481 164.052 113.994 161.527C113.291 158.16 113.237 154.397 113.832 154.397C114.102 154.397 114.697 155.288 115.237 156.427C115.778 157.516 116.373 158.308 116.535 158.16C116.697 158.011 116.589 157.367 116.265 156.724C113.778 151.921 113.615 150.832 115.292 148.752C116.211 147.613 117.184 148.108 116.751 149.544C116.589 150.237 116.643 150.485 117.076 150.237C117.454 150.039 117.724 150.138 117.724 150.435C117.724 150.832 118.265 150.881 119.292 150.683C120.644 150.435 120.86 150.534 121.077 151.624C121.239 152.317 121.077 152.961 120.806 153.06C120.482 153.159 120.428 153.505 120.644 153.852C120.914 154.199 121.401 154.347 121.779 154.199C122.644 153.901 123.347 156.031 122.807 157.466C122.59 158.16 122.644 158.358 123.131 158.11C123.455 157.912 123.672 157.021 123.564 156.13C123.401 154.1 123.942 153.456 124.699 154.793C125.023 155.337 126.483 156.179 127.943 156.625C129.403 157.07 130.754 157.764 130.917 158.16C131.511 159.546 131.241 161.18 130.376 161.873C129.457 162.566 129.619 164.25 130.917 166.924C131.295 167.815 131.673 169.498 131.673 170.736C131.728 172.865 132.701 174.202 134.485 174.796C134.755 174.895 135.026 175.49 134.971 176.183C134.971 176.876 134.971 178.213 134.917 179.154C134.917 180.094 135.242 181.778 135.728 182.867C136.485 184.65 136.593 184.699 136.648 183.511C136.648 182.768 136.918 182.026 137.188 181.877C137.513 181.728 137.729 181.035 137.729 180.392C137.729 178.758 139.567 177.668 141.838 178.015L143.676 178.312V174.846C143.676 171.38 142.919 168.261 142.054 168.261C141.784 168.261 141.081 168.855 140.432 169.597C138.756 171.578 137.567 170.687 137.026 166.973C136.81 165.389 136.431 163.705 136.269 163.309C136.107 162.913 135.999 162.418 135.999 162.17C136.053 161.972 135.782 161.824 135.35 161.824C134.971 161.824 134.323 161.477 133.944 161.081C133.079 160.14 131.241 152.961 131.782 152.664C131.944 152.565 132.052 151.772 131.89 150.931C131.782 150.138 131.836 149.445 131.998 149.445C132.484 149.445 133.35 151.673 133.62 153.604C133.944 156.031 135.134 157.813 137.945 160.239C139.567 161.626 140.432 162.765 140.432 163.606C140.432 164.25 140.648 164.795 140.973 164.795C141.243 164.795 141.351 165.092 141.189 165.488C141.027 165.933 141.459 166.528 142.27 167.023C143.081 167.518 143.676 168.36 143.676 169.003C143.676 169.597 144.055 170.39 144.541 170.786C145.082 171.182 145.244 171.826 145.028 172.618C144.866 173.262 144.974 174.103 145.352 174.499C145.677 174.846 145.839 175.44 145.731 175.787C145.46 176.43 147.461 178.163 148.38 178.163C150.326 178.163 151.299 185.293 149.515 186.482C148.001 187.522 148.38 188.66 150.813 190.542C153.029 192.324 153.029 192.374 152.164 193.513C151.678 194.206 151.245 194.949 151.245 195.196C151.245 195.493 151.624 195.196 152.11 194.553C152.759 193.76 153.138 193.612 153.408 194.008C154.165 195.147 153.3 196.335 150.11 198.514C146.866 200.742 146.271 201.732 147.785 202.277C148.488 202.524 148.38 202.772 147.082 203.762L145.568 204.951L147.353 204.059C149.137 203.168 149.191 203.168 149.948 204.109C150.921 205.347 150.921 206.733 150.002 207.228C147.839 208.367 146.92 212.427 148.596 213.318C148.92 213.566 149.083 214.061 148.92 214.457C148.758 214.903 148.866 215.349 149.245 215.497C149.623 215.596 149.299 215.745 148.596 215.745C146.866 215.794 147.461 216.289 149.407 216.487C151.462 216.685 151.624 217.775 150.11 220.647C149.461 221.934 148.704 223.37 148.488 223.816C148.218 224.261 148.218 224.756 148.488 224.905C148.92 225.152 150.434 222.776 150.272 222.083C150.056 221.439 151.786 218.765 152.381 218.765C152.759 218.765 152.813 219.112 152.597 219.607C151.948 221.043 152.002 222.38 152.759 222.578C153.084 222.726 153.408 222.479 153.408 222.033C153.408 221.587 153.138 221.241 152.867 221.241C152.543 221.241 152.651 220.597 153.138 219.755C153.57 218.963 153.949 218.121 153.895 217.923C153.624 216.586 154.003 216.24 154.814 217.032C155.3 217.428 155.571 218.072 155.408 218.418C155.246 218.765 155.462 219.458 155.841 219.953C156.544 220.795 156.598 220.795 157.138 219.805C157.949 218.468 157.895 218.121 156.922 218.468C156.49 218.617 156.111 218.517 156.111 218.27C156.111 217.577 157.517 217.676 158.166 218.418C159.247 219.607 158.923 224.707 157.463 228.965C156.814 230.896 158.652 230.104 159.517 228.074C160.437 225.945 160.869 225.796 162.653 227.133C163.789 227.975 163.843 228.173 163.248 229.411C162.653 230.549 162.707 230.896 163.464 231.688C164.113 232.332 164.275 233.075 164.005 234.362C163.843 235.303 163.518 236.838 163.356 237.679C162.599 241.69 165.681 243.77 171.844 243.423C175.791 243.225 177.954 242.235 179.143 240.106C179.738 239.066 179.846 239.115 181.468 241.492C185.036 246.543 187.686 248.028 193.309 248.028C198.661 248.028 200.986 246.939 207.852 240.997C211.042 238.224 214.124 235.55 214.665 235.006C215.53 234.213 216.449 234.114 221.747 234.164C227.37 234.263 228.073 234.164 230.776 232.926C234.777 231.144 238.832 228.074 246.942 220.746C250.726 217.329 254.781 213.715 255.971 212.724C258.079 210.991 258.242 210.942 259.107 211.784C259.864 212.625 259.864 212.724 259.107 212.972C258.674 213.17 258.296 213.566 258.296 213.863C258.296 214.259 258.566 214.259 259.161 213.764C260.296 212.922 260.675 213.517 261.864 217.874C262.567 220.597 262.621 221.538 262.08 222.677C261.594 223.865 261.594 224.36 262.297 225.598C262.783 226.44 263.486 227.282 263.81 227.48C264.297 227.727 264.297 227.628 263.756 227.034C263.324 226.539 263.27 226.192 263.594 226.192C263.919 226.192 264.675 226.935 265.27 227.826C266.297 229.312 268.676 232.332 270.19 233.966C270.947 234.808 273.002 234.758 274.299 233.916C275.272 233.223 275.218 233.075 272.353 230.648C269.92 228.618 269.487 228.024 269.974 227.331C270.731 226.192 272.083 225.796 271.65 226.836C271.434 227.381 271.542 227.529 272.028 227.381C272.407 227.232 273.65 227.628 274.732 228.173C277.381 229.609 277.219 229.163 274.461 227.381C272.623 226.242 272.299 225.796 272.461 224.657C272.677 223.37 272.623 223.32 271.596 224.014C270.082 225.004 269.812 224.905 268.839 223.221C268.082 221.835 268.136 221.538 269.271 221.686C269.866 221.785 269.758 221.043 269.055 220.399C268.676 220.052 268.622 219.458 268.839 218.914C269.109 218.418 269.271 217.676 269.217 217.28C269.163 216.784 269.217 216.735 269.433 217.131C269.595 217.478 270.19 217.775 270.785 217.775C271.974 217.775 273.164 219.359 273.65 221.538C274.083 223.419 276.3 224.657 280.03 225.053C281.652 225.251 283.166 225.697 283.544 226.143C283.977 226.687 284.193 226.737 284.247 226.291C284.301 224.608 285.166 226.093 286.031 229.312C288.41 238.175 293.601 240.799 313.659 243.176C318.525 243.77 326.256 241.294 332.15 237.234C333.664 236.194 335.448 235.006 336.151 234.61C336.799 234.213 338.259 233.273 339.34 232.58C340.422 231.886 341.665 231.193 342.098 231.045C342.584 230.896 344.531 229.658 346.423 228.321C350.586 225.4 360.21 219.656 363.346 218.22C365.725 217.082 366.536 216.339 366.103 215.695C365.562 214.903 364.157 215.299 363.075 216.537C360.318 219.706 346.423 226.836 339.395 228.618C335.394 229.658 331.717 231.342 328.852 233.52C327.446 234.56 326.905 234.709 324.526 234.412C315.281 233.322 315.497 233.372 314.146 231.837C311.605 229.015 309.118 225.4 306.36 220.498C303.008 214.457 302.954 214.408 300.683 214.012C298.196 213.566 295.493 214.111 294.087 215.299C293.439 215.844 292.682 216.289 292.411 216.289C292.087 216.289 290.735 217.28 289.438 218.517C288.086 219.755 286.734 220.746 286.41 220.746C286.086 220.746 285.599 221.29 285.329 221.983C284.842 223.122 283.707 223.716 283.707 222.825C283.707 222.627 282.679 222.479 281.382 222.479C278.138 222.429 275.921 221.29 275.705 219.607C275.597 218.864 275.759 218.27 276.083 218.27C276.408 218.27 276.624 217.973 276.516 217.626C276.462 217.28 276.84 217.082 277.435 217.181C278.408 217.329 278.408 217.28 277.759 216.537C276.948 215.646 276.948 212.922 277.813 212.13C278.084 211.833 278.787 211.883 279.598 212.328C281.166 213.071 282.896 212.625 282.463 211.586C281.977 210.546 283.653 207.773 284.572 208.07C285.004 208.219 285.329 208.12 285.329 207.872C285.329 207.575 285.058 207.377 284.734 207.377C283.544 207.377 284.842 206.486 286.41 206.287C288.302 206.04 288.519 206.535 286.842 207.228C285.761 207.674 285.761 207.723 287.329 207.723C288.356 207.723 289.167 207.426 289.384 206.981C289.546 206.486 290.086 206.387 291.06 206.585C292.087 206.832 292.411 206.733 292.249 206.287C292.087 205.842 290.897 205.644 288.41 205.693C284.95 205.743 284.788 205.693 284.788 204.604C284.788 203.812 285.112 203.416 285.761 203.416C286.518 203.416 286.518 203.317 285.923 202.97C285.437 202.673 285.329 202.178 285.545 201.633C285.923 200.742 286.031 200.791 286.897 201.881C287.437 202.524 288.194 202.921 288.627 202.772C289.167 202.574 289.059 202.475 288.356 202.475C287.708 202.425 287.491 202.178 287.708 201.683C287.87 201.287 287.762 200.94 287.437 200.94C287.113 200.94 287.005 200.742 287.167 200.494C287.329 200.247 287.005 199.95 286.464 199.801C285.761 199.653 285.491 199.207 285.599 198.217C285.707 197.474 285.437 195.295 285.004 193.414C284.572 191.483 284.355 189.552 284.518 189.007C284.68 188.512 286.572 186.779 288.735 185.095C290.897 183.461 293.006 181.827 293.439 181.431C293.871 181.085 295.223 180.639 296.466 180.491C297.656 180.293 299.44 179.797 300.413 179.352C301.873 178.659 302.089 178.361 301.873 177.223C301.602 176.084 301.927 175.688 304.9 173.856C311.064 170.093 312.632 169.003 314.092 167.518C315.443 166.181 315.497 165.983 314.686 165.389C313.389 164.497 312.416 164.646 309.55 166.032C305.441 168.013 304.198 167.666 304.089 164.497C304.035 163.557 303.819 162.814 303.549 162.814C303.279 162.814 303.224 162.467 303.387 162.071C303.819 160.982 300.521 158.061 299.115 158.259C298.521 158.358 297.872 158.605 297.602 158.803C296.899 159.447 293.979 158.803 293.979 158.011C293.979 157.615 293.601 156.476 293.06 155.535C292.249 153.951 292.033 153.802 290.357 154.05C288.735 154.298 288.464 154.199 287.978 153.06C287.329 151.426 286.518 148.158 286.14 145.484C285.977 144.296 285.491 142.761 285.004 142.117C284.085 140.83 284.355 139.542 285.545 139.542C286.302 139.542 287.491 137.166 287.491 135.532C287.491 134.442 289.221 133.502 290.411 133.898C291.06 134.096 291.222 133.997 290.951 133.452C290.789 133.056 290.897 132.561 291.222 132.363C291.546 132.214 291.817 131.521 291.817 130.828C291.817 130.184 292.141 129.59 292.519 129.59C294.412 129.342 295.385 129.441 295.98 129.788C296.682 130.234 297.439 129.392 297.007 128.699C296.466 127.956 297.926 127.263 301.116 126.718C305.549 125.975 308.09 124.639 311.388 121.222C314.578 117.905 315.227 116.419 314.74 113.696C314.362 111.418 315.606 109.586 317.93 108.893C318.904 108.645 322.147 108.348 325.175 108.2C332.582 107.853 333.393 107.408 336.475 101.664C340.368 94.3359 340.151 88.5427 335.772 84.0864C331.717 79.9768 328.095 78.8874 323.986 80.5709C322.147 81.3136 321.174 81.4622 320.201 81.1156C319.444 80.868 318.525 80.769 318.093 80.9175C317.606 81.0661 316.957 80.67 316.417 79.9272C315.876 79.234 315.227 78.7884 314.74 78.9865C314.308 79.135 313.984 78.9865 313.984 78.6894C313.984 78.3923 313.713 78.1447 313.335 78.1447C311.767 78.1447 308.685 76.4117 307.496 74.8273C305.657 72.4011 303.819 71.6089 300.9 72.1535C298.25 72.5991 296.304 72.1535 295.817 70.9652C295.601 70.5691 295.169 70.2225 294.844 70.2225C293.439 70.2225 291.276 68.9351 291.276 68.0933C291.276 67.6477 291.06 67.2516 290.735 67.2516C290.465 67.2516 290.195 67.0536 290.195 66.806C290.195 66.1128 295.006 61.4089 296.088 61.0623C296.628 60.9138 297.385 60.2206 297.818 59.5274C298.521 58.2895 298.467 58.141 296.52 56.6061C293.817 54.4274 291.276 53.3876 288.951 53.3876C287.87 53.3876 286.842 53.1401 286.626 52.7935C286.41 52.4964 286.302 48.5848 286.356 44.178C286.464 36.3052 286.464 36.1072 285.112 34.1266C284.355 33.0373 283.22 31.8985 282.625 31.6014C281.977 31.3043 281.598 30.6606 281.706 30.0169C281.76 29.3732 281.382 28.7296 280.733 28.4325C280.084 28.0859 279.706 27.4917 279.814 26.9966C279.922 26.4519 279.76 26.1548 279.273 26.2538C278.895 26.3034 277.813 25.9073 276.84 25.2636C274.353 23.6791 269.055 23.283 265.216 24.4218C258.296 26.4519 251.375 30.9082 249.916 34.2256C248.834 36.7013 248.023 42.8411 248.564 44.2275C249.159 45.7624 249.213 53.041 248.618 54.4274C248.348 55.1206 247.266 56.5565 246.185 57.5468C245.158 58.5866 244.13 59.874 243.968 60.3691C243.752 60.8643 243.265 61.6565 242.833 62.0526C242.346 62.4487 242.238 62.7953 242.563 62.7953C243.59 62.7953 241.968 64.7264 240.076 65.8157C237.967 67.0536 237.318 66.7565 237.643 64.8254C237.751 64.0332 237.643 62.9934 237.318 62.4982C236.399 60.9633 234.885 63.8351 234.831 67.2516C234.777 69.5293 234.615 70.1729 233.966 70.1234C231.155 69.9254 229.749 70.272 229.479 71.2127C229.154 72.4011 228.397 72.5001 227.262 71.4603C226.289 70.5691 226.667 69.4302 228.073 68.6875C229.316 68.0933 229.425 67.2516 228.235 67.2516C227.478 67.2516 227.424 66.9545 227.803 65.6176C228.343 63.5876 228.451 51.4071 227.857 51.0605C227.64 50.9614 226.721 49.575 225.802 48.0401C224.937 46.5052 223.423 44.079 222.504 42.7421C220.612 39.9198 218.828 35.6615 218.828 33.879C218.828 32.4431 220.99 27.7393 222.126 26.65C222.558 26.2538 223.585 25.016 224.45 23.9267C225.316 22.8374 226.775 21.2529 227.694 20.4112C228.614 19.5694 229.749 18.4801 230.236 17.9355C230.722 17.4403 231.587 16.5986 232.128 16.153C232.668 15.6578 233.642 14.8656 234.182 14.2714C235.534 12.984 235.804 13.0336 237.426 14.5685C239.048 16.2025 240.454 15.8559 240.454 13.9248C240.454 13.0831 241.211 11.6967 242.292 10.4588C243.482 9.07242 244.239 7.53748 244.509 6.10157C245.32 0.952093 243.265 -1.02847 238.67 0.506466ZM166.924 13.6277C166.87 14.0734 163.302 16.252 162.545 16.252C161.41 16.252 162.761 14.1724 164.221 13.6277C165.411 13.2316 166.924 13.2316 166.924 13.6277ZM149.894 51.9022C149.894 52.5954 150.11 53.2886 150.434 53.4867C150.705 53.6847 150.597 54.1799 150.11 54.7245C149.623 55.2197 149.083 56.0614 148.975 56.6061C148.812 57.1507 148.488 57.9925 148.272 58.4381C147.785 59.5769 148.704 59.5769 149.948 58.4876C150.867 57.6459 150.867 57.6954 150.542 59.3293C150.326 60.2701 149.677 61.9041 149.137 62.8944C148.596 63.9342 148.326 64.7759 148.542 64.7759C149.083 64.7759 152.327 58.9332 152.327 57.9925C152.327 57.5963 152.597 56.8536 152.921 56.2595C153.516 55.2692 153.516 55.2692 154.651 56.2595C155.3 56.7546 156.219 57.3488 156.706 57.4973C157.625 57.7944 158.49 60.5672 157.895 61.4584C157.679 61.7555 157.841 61.805 158.274 61.5575C158.815 61.2604 158.923 61.508 158.706 62.4982C158.382 63.8846 159.517 64.8749 160.815 64.4293C161.193 64.2808 161.68 64.6274 161.896 65.1225C162.113 65.6176 162.707 66.6079 163.302 67.3506C164.816 69.1827 164.167 70.7176 161.031 73.1438C156.003 77.0059 150.705 79.036 150.705 77.1049C150.705 76.1146 153.462 70.0244 154.273 69.1827C155.138 68.3409 155.3 66.7565 154.543 66.7565C153.624 66.7565 152.597 68.3904 151.137 72.3516C150.272 74.5797 149.353 76.6098 149.083 76.8574C148.758 77.1544 147.515 76.8574 145.731 76.0651C144.163 75.3719 142.433 74.6292 141.838 74.4807C140.973 74.2331 140.919 74.0351 141.568 73.2428C144.379 69.7273 144.649 69.2322 142.595 71.3118C140 74.0351 138.81 73.9855 138.81 71.2623C138.81 69.6283 140.54 64.6769 141.513 63.538C141.892 63.0429 142.919 60.1711 144.163 55.9624C145.352 51.9517 149.894 48.7333 149.894 51.9022ZM232.777 71.2623C232.236 71.5098 231.803 72.3021 231.803 72.9457C231.803 73.5894 231.533 74.2826 231.155 74.4807C230.776 74.6787 230.722 74.6292 230.938 74.2331C231.155 73.936 231.047 73.2923 230.668 72.8962C230.127 72.3021 230.236 72.0545 231.047 71.4603C231.587 71.0642 232.452 70.7671 232.885 70.7671C233.534 70.7671 233.479 70.8661 232.777 71.2623ZM220.45 79.8282C220.45 79.9768 220.233 80.2243 219.909 80.3729C219.639 80.5214 219.368 80.4224 219.368 80.1748C219.368 79.8777 219.639 79.6302 219.909 79.6302C220.233 79.6302 220.45 79.7292 220.45 79.8282ZM155.571 80.868C156.057 81.4127 156.003 81.8088 155.354 82.7C154.814 83.3932 154.489 84.8291 154.489 86.4136C154.489 89.0874 154.057 89.5825 152.759 88.3447C152.164 87.8 151.84 87.8 151.083 88.2951C150.056 88.9388 149.84 90.0281 150.705 90.0281C151.029 90.0281 151.245 90.7213 151.245 91.5136V92.999L146.92 92.7514C141.892 92.5039 140.432 91.8602 140.432 89.8796C140.432 88.7903 140.811 88.3447 142.27 87.8C144.649 86.8592 147.299 84.7796 148.272 83.0962C148.758 82.2049 149.894 81.4127 151.353 80.967C154.327 79.9768 154.76 79.9768 155.571 80.868ZM179.414 84.235C178.873 84.6806 178.819 84.6311 179.143 83.9379C179.305 83.4428 179.63 83.1952 179.792 83.3437C179.954 83.4923 179.792 83.8884 179.414 84.235ZM211.258 84.0864C211.258 84.334 211.042 84.5816 210.718 84.5816C210.447 84.5816 210.177 84.334 210.177 84.0864C210.177 83.7894 210.447 83.5913 210.718 83.5913C211.042 83.5913 211.258 83.7894 211.258 84.0864ZM201.797 85.1262C201.581 85.3738 200.986 85.5719 200.391 85.5719C198.985 85.5719 199.472 84.8291 200.932 84.7301C201.581 84.6806 201.959 84.8291 201.797 85.1262ZM197.958 86.9087C196.661 87.8 196.282 87.7505 195.579 86.5621C195.039 85.6709 195.093 85.6214 196.39 86.067C197.201 86.3641 197.688 86.3641 197.526 86.1165C197.309 85.8689 197.526 85.5719 197.85 85.4233C198.985 85.0767 199.04 86.166 197.958 86.9087ZM184.442 86.8097C184.225 87.2058 183.523 87.5524 182.82 87.5524C180.549 87.5524 181.468 86.2155 183.793 86.1165C184.442 86.067 184.604 86.3146 184.442 86.8097ZM194.228 87.5524C194.39 87.8 194.282 88.0476 194.011 88.0476C193.687 88.0476 193.417 87.8 193.417 87.5524C193.417 87.2553 193.525 87.0573 193.633 87.0573C193.795 87.0573 194.065 87.2553 194.228 87.5524ZM137.729 119.242C137.729 119.489 137.188 119.984 136.539 120.281C135.458 120.826 135.404 120.776 135.945 120.133C136.323 119.737 136.485 119.242 136.269 119.093C136.107 118.895 136.323 118.746 136.81 118.746C137.35 118.746 137.729 118.944 137.729 119.242ZM119.346 119.984C119.617 119.836 119.887 119.786 119.887 119.885C119.887 120.43 118.265 122.906 117.724 123.203C117.4 123.401 117.022 124.143 116.859 124.936C116.481 126.768 116.211 127.164 115.292 127.164C114.048 127.164 113.291 125.233 113.615 123.005C113.94 121.371 114.318 120.826 115.724 120.232C116.751 119.737 117.724 119.638 118.103 119.885C118.481 120.133 119.022 120.182 119.346 119.984ZM123.347 122.807C123.834 123.401 124.212 124.886 124.212 126.025C124.212 127.362 124.483 128.154 124.915 128.204C125.24 128.204 124.861 128.451 123.942 128.699C122.104 129.243 118.265 128.798 118.265 128.105C118.265 127.807 118.535 127.758 118.806 127.907C119.13 128.055 119.346 127.956 119.346 127.708C119.346 127.411 119.13 127.164 118.806 127.164C118.157 127.164 118.644 125.926 120.266 123.549C121.725 121.42 122.212 121.321 123.347 122.807ZM108.75 130.085C108.912 130.283 109.831 130.63 110.804 130.828L112.588 131.174L110.263 133.105C108.966 134.195 107.722 135.086 107.452 135.086C107.128 135.086 106.911 135.284 106.911 135.581C106.911 135.829 106.641 136.076 106.317 136.076C105.83 136.076 105.884 135.878 106.317 135.383C106.641 135.037 106.749 134.096 106.587 133.254C106.1 131.075 107.776 128.6 108.75 130.085ZM283.436 132.709C282.409 133.254 281.814 132.957 282.301 132.165C282.517 131.868 283.058 131.818 283.49 131.967C284.301 132.214 284.247 132.313 283.436 132.709ZM63.929 132.561C64.0911 132.808 63.983 133.155 63.6586 133.353C62.9017 133.799 60.8472 133.155 61.2257 132.561C61.6582 131.967 63.4964 131.967 63.929 132.561ZM58.252 134.789C58.252 135.136 57.441 135.928 56.5219 136.571C55.5487 137.215 54.5756 138.007 54.3593 138.354C54.089 138.701 51.8723 139.097 48.6824 139.295C45.7628 139.493 42.9514 139.889 42.4107 140.137C41.0591 140.78 40.6266 140.285 41.5457 139.245C42.8433 137.809 47.4929 136.175 49.4934 136.472C50.8991 136.621 51.6019 136.423 52.7373 135.433C54.7918 133.7 58.252 133.304 58.252 134.789ZM68.5245 135.086C68.5245 135.581 68.1461 136.076 67.7136 136.274C66.7404 136.621 65.0103 134.541 65.8753 134.046C66.8485 133.502 68.5245 134.145 68.5245 135.086ZM281.544 134.096C281.544 134.343 281.274 134.591 280.949 134.591C280.517 134.591 280.517 134.838 281.003 135.334C281.544 135.928 281.544 136.076 280.841 136.076C279.976 136.076 279.219 137.364 279.706 138.106C279.868 138.354 279.706 138.552 279.435 138.552C278.624 138.552 278.679 139.889 279.544 140.186C279.868 140.335 279.652 140.483 278.949 140.483C278.192 140.533 277.813 140.335 278.03 140.037C278.246 139.74 278.084 139.146 277.651 138.701C277.111 138.106 277.111 137.859 277.597 137.71C277.976 137.611 278.138 137.215 277.976 136.819C277.813 136.472 278.192 135.928 278.787 135.581C279.435 135.284 279.922 134.739 279.922 134.343C279.922 133.947 280.301 133.601 280.733 133.601C281.166 133.601 281.544 133.799 281.544 134.096ZM65.2806 136.324C65.7672 136.869 65.8213 137.265 65.4428 137.611C63.983 138.948 55.6028 139.889 55.1703 138.75C55.0622 138.453 56.1435 137.661 57.5492 136.918C60.5228 135.433 64.1993 135.136 65.2806 136.324ZM79.9324 137.562C80.9056 137.562 81.5004 137.809 81.5004 138.255C81.5004 139.245 80.0946 139.592 79.3377 138.8C79.0133 138.404 78.3645 138.255 77.932 138.404C77.4995 138.552 77.1751 138.354 77.1751 137.958C77.1751 137.017 77.932 136.373 78.1483 137.017C78.2564 137.314 79.0674 137.562 79.9324 137.562ZM40.2481 139.542C39.5453 141.226 38.7883 141.523 38.7883 140.037C38.7883 139.295 39.8696 138.205 40.7888 138.057C40.8428 138.057 40.5725 138.701 40.2481 139.542ZM282.085 139.047C282.085 139.295 281.868 139.542 281.544 139.542C281.274 139.542 281.003 139.295 281.003 139.047C281.003 138.75 281.274 138.552 281.544 138.552C281.868 138.552 282.085 138.75 282.085 139.047ZM64.6859 139.988C65.2806 140.335 65.0643 140.582 63.8749 141.176C63.0098 141.572 61.8204 142.365 61.2797 142.959C60.685 143.553 59.9821 143.999 59.7118 143.999C59.3874 143.999 58.6305 144.395 58.0358 144.939C56.1435 146.474 52.0345 148.405 51.4397 148.059C51.1153 147.861 50.3044 146.722 49.6556 145.534C48.5743 143.652 48.5202 143.206 49.1149 141.919L49.7637 140.384L54.143 140.681C57.0626 140.83 59.1712 140.731 60.4147 140.285C62.7936 139.493 63.7127 139.443 64.6859 139.988ZM113.561 146.573C113.507 148.108 113.237 150.584 112.913 152.02C112.642 153.456 112.21 155.932 111.994 157.516C111.831 159.051 111.453 160.487 111.183 160.635C110.912 160.784 110.696 161.675 110.696 162.616C110.696 163.854 110.209 164.795 108.695 166.33C107.56 167.468 106.371 169.3 105.992 170.439C105.668 171.529 104.965 173.658 104.532 175.143C103.397 178.708 101.937 180.887 100.64 180.887C99.288 180.887 98.8014 181.53 98.8014 183.362C98.8014 184.155 97.9364 187.274 96.8551 190.195C95.4493 194.107 94.5843 195.741 93.6111 196.335C91.881 197.325 90.9078 196.583 91.0159 194.404C91.1241 193.513 91.2863 189.75 91.5025 186.086C91.9351 176.678 92.8001 173.806 97.8282 164.299C103.667 153.258 104.1 152.515 106.479 149.792C107.614 148.455 108.533 147.118 108.533 146.771C108.533 145.583 111.183 143.454 112.48 143.603C113.561 143.751 113.67 143.999 113.561 146.573ZM107.993 144.939C107.993 145.236 107.776 145.583 107.452 145.732C107.182 145.88 106.911 145.682 106.911 145.286C106.911 144.84 107.182 144.494 107.452 144.494C107.776 144.494 107.993 144.692 107.993 144.939ZM79.6621 146.821C79.1215 147.316 78.6349 146.573 79.1215 145.93C79.4459 145.385 79.554 145.385 79.7702 145.93C79.8784 146.276 79.8243 146.672 79.6621 146.821ZM131.782 147.91C131.782 148.207 131.565 148.554 131.241 148.702C130.971 148.851 130.7 148.653 130.7 148.257C130.7 147.811 130.971 147.465 131.241 147.465C131.565 147.465 131.782 147.663 131.782 147.91ZM112.913 162.17C112.426 162.913 112.372 162.765 112.372 161.329C112.372 159.893 112.426 159.744 112.913 160.437C113.291 161.032 113.291 161.626 112.913 162.17ZM134.377 171.826C135.296 172.667 135.188 173.707 134.215 173.707C133.566 173.707 132.322 172.321 132.322 171.529C132.322 170.984 133.728 171.231 134.377 171.826ZM287.221 182.867C285.383 184.254 284.788 184.402 284.788 183.461C284.788 182.422 285.977 181.629 287.491 181.629L288.843 181.679L287.221 182.867ZM284.247 192.572C284.247 192.869 284.031 192.919 283.707 192.77C283.436 192.622 283.166 192.225 283.166 191.978C283.166 191.681 283.436 191.631 283.707 191.78C284.031 191.928 284.247 192.324 284.247 192.572ZM282.193 202.524L284.355 202.475L283.977 204.307C283.49 206.634 283.328 206.882 282.085 206.882C281.49 206.882 280.192 207.525 279.219 208.367C277.219 209.952 275.381 210.249 273.867 209.159C272.515 208.219 272.623 207.723 274.786 205.842C275.813 204.901 276.678 203.861 276.678 203.515C276.678 202.821 278.841 201.881 279.544 202.277C279.814 202.425 281.003 202.524 282.193 202.524ZM274.515 203.713C274.515 204.01 273.867 204.703 271.217 207.377C270.677 207.921 269.758 208.169 268.784 208.07C267.974 208.02 266.622 208.268 265.811 208.664C263.756 209.605 263.378 209.555 264.513 208.367C265 207.872 265.595 207.476 265.811 207.476C266.676 207.723 269.055 206.585 270.893 205.099C272.677 203.614 274.515 202.921 274.515 203.713ZM282.625 208.813C282.625 209.555 281.274 210.298 280.03 210.199C278.624 210.1 278.624 210.15 279.706 209.159C280.571 208.318 282.625 208.07 282.625 208.813ZM268.784 209.605C267.649 210.397 266.406 210.595 266.406 209.952C266.406 209.209 267.108 208.862 268.514 208.862C269.812 208.862 269.812 208.912 268.784 209.605ZM273.164 209.506C274.245 210.298 273.867 210.645 271.272 211.338C269.433 211.833 269.217 211.338 270.569 209.853C271.704 208.664 271.866 208.664 273.164 209.506ZM276.678 212.675C276.678 214.606 275.867 215.002 274.029 214.012L272.299 213.071L273.813 212.477C275.921 211.635 276.678 211.685 276.678 212.675ZM152.327 214.853C152.327 215.299 150.651 215.893 150.326 215.596C150.164 215.448 150.164 215.151 150.38 214.903C150.705 214.408 152.327 214.309 152.327 214.853ZM273.867 215.051C274.678 215.25 275.056 215.695 274.948 216.19C274.57 217.775 270.731 216.388 270.731 214.655C270.731 214.457 271.163 214.358 271.704 214.507C272.191 214.606 273.164 214.853 273.867 215.051ZM194.931 227.381C195.742 227.777 196.769 228.668 197.201 229.361C197.58 230.054 198.12 230.648 198.391 230.648C199.31 230.648 198.769 233.124 197.634 234.263C195.904 235.897 194.552 236.293 194.12 235.204C193.903 234.758 192.93 233.322 191.957 232.084C189.956 229.51 189.794 228.618 191.038 227.48C192.065 226.489 193.038 226.489 194.931 227.381ZM175.305 228.173C178.278 229.015 179.197 229.906 179.63 232.183C180.116 234.659 179.522 237.234 178.657 236.59C175.359 234.114 174.277 233.52 172.331 232.877C171.033 232.48 169.574 232.134 169.033 232.134C166.6 232.134 165.248 228.42 167.627 227.975C171.412 227.232 172.169 227.232 175.305 228.173ZM271.055 231.49C270.677 231.837 269.65 231.144 269.65 230.549C269.65 230.252 269.974 230.252 270.461 230.648C270.947 230.995 271.163 231.391 271.055 231.49ZM184.171 232.926C186.064 233.817 187.632 236.145 186.55 236.442C186.226 236.541 186.064 237.085 186.226 237.58C186.388 238.175 186.226 238.571 185.847 238.571C185.523 238.571 185.091 238.125 184.928 237.58C184.766 237.085 184.171 236.491 183.631 236.343C182.279 235.946 181.36 234.313 181.793 233.124C182.225 231.936 182.063 231.936 184.171 232.926ZM191.578 233.817C192.011 234.213 192.335 235.105 192.335 235.748C192.335 236.739 192.119 236.937 191.308 236.739C190.497 236.541 190.281 236.095 190.335 234.808C190.443 232.877 190.497 232.877 191.578 233.817Z" fill="black"/>
<path d="M156.112 67.548C156.112 67.9441 156.383 68.1422 156.653 67.9937C156.977 67.7956 157.085 67.449 156.923 67.2014C156.437 66.5082 156.112 66.6568 156.112 67.548Z" fill="black"/>
<path d="M109.075 148.455C108.426 148.851 108.48 148.95 109.507 148.95C110.156 148.95 110.697 148.702 110.697 148.455C110.697 147.811 110.102 147.811 109.075 148.455Z" fill="black"/>
<path d="M103.397 160.833C103.56 161.081 103.83 161.328 103.992 161.328C104.1 161.328 104.208 161.081 104.208 160.833C104.208 160.536 103.938 160.338 103.614 160.338C103.343 160.338 103.235 160.536 103.397 160.833Z" fill="black"/>
<path d="M100.693 178.658C100.856 178.906 101.126 179.153 101.288 179.153C101.396 179.153 101.504 178.906 101.504 178.658C101.504 178.361 101.234 178.163 100.91 178.163C100.639 178.163 100.531 178.361 100.693 178.658Z" fill="black"/>
<path d="M282.733 0.902455C279.489 1.59565 278.462 4.17039 280.516 6.54707C281.976 8.23056 284.355 8.28007 286.139 6.59659C287.869 5.06165 287.815 3.92282 286.031 2.04128C284.679 0.704398 284.301 0.555855 282.733 0.902455Z" fill="black"/>
<path d="M129.566 5.70516C128.592 5.90322 127.457 7.88379 127.457 9.27019C127.457 10.508 129.187 11.7954 130.755 11.7954C132.755 11.7954 133.945 10.8051 134.269 8.77504C134.756 6.05176 132.918 4.86342 129.566 5.70516Z" fill="black"/>
<path d="M291.816 6.84448C291.816 7.98331 293.222 8.72602 294.033 7.98331C294.79 7.29011 294.033 5.8542 292.843 5.8542C292.194 5.8542 291.816 6.2008 291.816 6.84448Z" fill="black"/>
<path d="M360.481 10.3591C360.481 10.6067 360.751 10.7057 361.022 10.5572C361.346 10.4086 361.562 10.161 361.562 10.0125C361.562 9.91348 361.346 9.81445 361.022 9.81445C360.751 9.81445 360.481 10.062 360.481 10.3591Z" fill="black"/>
<path d="M372.916 10.8052C372.916 11.0527 373.186 11.3003 373.456 11.3003C373.781 11.3003 373.997 11.0527 373.997 10.8052C373.997 10.5081 373.781 10.31 373.456 10.31C373.186 10.31 372.916 10.5081 372.916 10.8052Z" fill="black"/>
<path d="M78.7974 16.9942C78.7974 17.4398 79.4462 17.9844 80.2031 18.232C82.4738 19.0242 82.8523 18.8262 81.5007 17.4893C80.0949 16.1029 78.7974 15.8553 78.7974 16.9942Z" fill="black"/>
<path d="M191.524 18.7275C191.687 18.9751 191.957 19.2227 192.119 19.2227C192.227 19.2227 192.335 18.9751 192.335 18.7275C192.335 18.4304 192.065 18.2324 191.741 18.2324C191.47 18.2324 191.362 18.4304 191.524 18.7275Z" fill="black"/>
<path d="M192.875 20.6088C192.875 20.8563 193.253 21.3515 193.686 21.6981C194.119 22.0447 194.497 22.0942 194.497 21.7971C194.497 21.5495 194.119 21.0544 193.686 20.7078C193.253 20.3612 192.875 20.3117 192.875 20.6088Z" fill="black"/>
<path d="M227.478 22.9362C227.478 23.3324 227.748 23.679 228.018 23.679C228.343 23.679 228.559 23.3324 228.559 22.9362C228.559 22.5401 228.343 22.1935 228.018 22.1935C227.748 22.1935 227.478 22.5401 227.478 22.9362Z" fill="black"/>
<path d="M305.874 23.1343C305.874 23.877 306.198 24.1741 307.009 24.1741C307.766 24.1741 308.036 23.9265 307.928 23.3323C307.658 22.045 305.874 21.8964 305.874 23.1343Z" fill="black"/>
<path d="M206.716 35.3146C206.229 36.4535 206.283 36.5525 207.202 36.5525C208.121 36.5525 208.23 36.1069 207.527 35.1661C207.148 34.6214 206.986 34.671 206.716 35.3146Z" fill="black"/>
<path d="M322.364 36.5525C322.202 36.8 322.418 37.0476 322.904 37.0476C323.391 37.0476 323.607 36.8 323.445 36.5525C323.283 36.2554 323.013 36.0573 322.904 36.0573C322.796 36.0573 322.526 36.2554 322.364 36.5525Z" fill="black"/>
<path d="M318.309 37.0478C318.309 37.2954 318.579 37.543 318.849 37.543C319.174 37.543 319.39 37.2954 319.39 37.0478C319.39 36.7507 319.174 36.5527 318.849 36.5527C318.579 36.5527 318.309 36.7507 318.309 37.0478Z" fill="black"/>
<path d="M122.59 37.5427C122.59 37.7903 122.861 38.0378 123.185 38.0378C123.455 38.0378 123.564 37.7903 123.401 37.5427C123.239 37.2456 122.969 37.0476 122.807 37.0476C122.698 37.0476 122.59 37.2456 122.59 37.5427Z" fill="black"/>
<path d="M233.425 41.5534C233.425 41.801 233.695 41.9 233.965 41.7515C234.29 41.603 234.506 41.3554 234.506 41.2068C234.506 41.1078 234.29 41.0088 233.965 41.0088C233.695 41.0088 233.425 41.2564 233.425 41.5534Z" fill="black"/>
<path d="M230.993 42.4944C230.831 42.7419 230.939 42.9895 231.209 42.9895C231.533 42.9895 231.804 42.7419 231.804 42.4944C231.804 42.1973 231.696 41.9992 231.587 41.9992C231.425 41.9992 231.155 42.1973 230.993 42.4944Z" fill="black"/>
<path d="M395.354 46.4555C395.191 46.7031 395.299 46.9507 395.57 46.9507C395.894 46.9507 396.165 46.7031 396.165 46.4555C396.165 46.1585 396.056 45.9604 395.948 45.9604C395.786 45.9604 395.516 46.1585 395.354 46.4555Z" fill="black"/>
<path d="M128.807 47.4455C128.969 47.6931 129.239 47.9407 129.401 47.9407C129.51 47.9407 129.618 47.6931 129.618 47.4455C129.618 47.1484 129.347 46.9504 129.023 46.9504C128.753 46.9504 128.644 47.1484 128.807 47.4455Z" fill="black"/>
<path d="M387.189 51.4563C386.54 52.4466 388.487 53.4369 389.73 52.7437C390.325 52.3971 390.703 51.9515 390.595 51.6544C390.325 50.9117 387.676 50.7631 387.189 51.4563Z" fill="black"/>
<path d="M330.799 56.6553C329.501 58.1903 329.393 59.2301 330.42 60.4184C331.447 61.6563 333.286 61.5077 334.799 60.0718C336.367 58.6854 336.53 57.2495 335.286 56.1602C334.043 54.9718 332.042 55.2194 330.799 56.6553Z" fill="black"/>
<path d="M103.938 61.7557C103.613 62.3004 104.424 62.8945 104.965 62.4489C105.451 62.0033 105.343 61.3101 104.803 61.3101C104.478 61.3101 104.154 61.5081 103.938 61.7557Z" fill="black"/>
<path d="M367.238 61.8546C366.698 62.5973 367.4 63.0925 368.103 62.4488C368.482 62.1022 368.482 61.8051 368.157 61.607C367.833 61.4585 367.4 61.5575 367.238 61.8546Z" fill="black"/>
<path d="M187.362 74.0351C187.74 74.1836 188.227 74.1341 188.389 73.9856C188.605 73.837 188.281 73.6885 187.686 73.738C187.091 73.738 186.929 73.8865 187.362 74.0351Z" fill="black"/>
<path d="M347.774 74.6787C347.612 74.9263 347.72 75.1738 347.991 75.1738C348.315 75.1738 348.585 74.9263 348.585 74.6787C348.585 74.3816 348.477 74.1835 348.369 74.1835C348.207 74.1835 347.937 74.3816 347.774 74.6787Z" fill="black"/>
<path d="M414.601 79.2836C413.844 80.1253 414.763 81.3137 415.844 80.9671C416.331 80.769 416.709 80.3234 416.709 79.9273C416.709 78.9865 415.304 78.5409 414.601 79.2836Z" fill="black"/>
<path d="M375.619 85.8191C375.619 86.2152 375.997 86.5618 376.43 86.5618C376.862 86.5618 377.241 86.2152 377.241 85.8191C377.241 85.4229 376.862 85.0763 376.43 85.0763C375.997 85.0763 375.619 85.4229 375.619 85.8191Z" fill="black"/>
<path d="M424.819 93.0483C424.819 93.2959 425.089 93.3949 425.36 93.2464C425.684 93.0978 425.9 92.8503 425.9 92.7017C425.9 92.6027 425.684 92.5037 425.36 92.5037C425.089 92.5037 424.819 92.7512 424.819 93.0483Z" fill="black"/>
<path d="M0.130895 101.911C0.293093 102.159 0.563422 102.406 0.72562 102.406C0.833752 102.406 0.941883 102.159 0.941883 101.911C0.941883 101.614 0.671554 101.416 0.347159 101.416C0.0768296 101.416 -0.0313021 101.614 0.130895 101.911Z" fill="black"/>
<path d="M419.466 111.467C419.034 111.962 419.088 112.359 419.574 113.002C420.547 114.24 422.223 113.844 422.656 112.309C422.98 111.17 422.872 111.022 421.575 110.923C420.764 110.873 419.845 111.121 419.466 111.467Z" fill="black"/>
<path d="M36.8431 113.844C36.3025 114.686 37.546 115.627 38.3029 114.934C38.9517 114.34 38.5192 113.3 37.7082 113.3C37.4379 113.3 37.0594 113.547 36.8431 113.844Z" fill="black"/>
<path d="M321.554 125.183C321.554 125.43 321.824 125.678 322.148 125.678C322.419 125.678 322.527 125.43 322.365 125.183C322.203 124.886 321.932 124.688 321.77 124.688C321.662 124.688 321.554 124.886 321.554 125.183Z" fill="black"/>
<path d="M51.7642 125.678C51.7642 125.926 52.0345 126.173 52.3048 126.173C52.6292 126.173 52.8455 125.926 52.8455 125.678C52.8455 125.381 52.6292 125.183 52.3048 125.183C52.0345 125.183 51.7642 125.381 51.7642 125.678Z" fill="black"/>
<path d="M8.13366 126.025C6.40355 126.322 6.45762 128.352 8.18772 129.392C9.86376 130.382 12.2967 129.936 12.2967 128.599C12.2967 127.659 10.4585 125.629 9.75563 125.728C9.4853 125.777 8.78245 125.926 8.13366 126.025Z" fill="black"/>
<path d="M322.094 127.857C322.094 128.302 322.364 128.649 322.634 128.649C322.959 128.649 323.175 128.451 323.175 128.203C323.175 127.906 322.959 127.56 322.634 127.411C322.364 127.263 322.094 127.461 322.094 127.857Z" fill="black"/>
<path d="M299.386 131.669C299.386 131.917 299.657 132.016 299.927 131.867C300.251 131.719 300.468 131.471 300.468 131.323C300.468 131.224 300.251 131.125 299.927 131.125C299.657 131.125 299.386 131.372 299.386 131.669Z" fill="black"/>
<path d="M360.047 132.214C359.182 133.006 359.236 134.442 360.155 134.739C360.587 134.888 361.344 134.591 361.831 134.096C362.642 133.303 362.642 133.006 362.101 132.363C361.29 131.471 360.912 131.422 360.047 132.214Z" fill="black"/>
<path d="M352.912 138.304C352.912 138.7 353.182 139.047 353.452 139.047C353.777 139.047 353.993 138.7 353.993 138.304C353.993 137.908 353.777 137.561 353.452 137.561C353.182 137.561 352.912 137.908 352.912 138.304Z" fill="black"/>
<path d="M302.089 143.503C302.089 143.751 302.468 143.998 302.954 143.998C303.387 143.998 303.603 143.751 303.441 143.503C303.279 143.206 302.9 143.008 302.576 143.008C302.306 143.008 302.089 143.206 302.089 143.503Z" fill="black"/>
<path d="M94.4766 144.494C94.4766 144.741 94.7469 144.989 95.0172 144.989C95.3416 144.989 95.5579 144.741 95.5579 144.494C95.5579 144.197 95.3416 143.998 95.0172 143.998C94.7469 143.998 94.4766 144.197 94.4766 144.494Z" fill="black"/>
<path d="M386.107 146.029C385.729 146.623 386.918 148.059 387.567 147.663C388.324 147.267 388.162 146.128 387.243 145.831C386.81 145.633 386.324 145.732 386.107 146.029Z" fill="black"/>
<path d="M94.4766 148.801C94.4766 148.999 94.7469 149.544 95.0172 149.94C95.4497 150.584 95.5579 150.584 95.5579 149.841C95.5579 149.395 95.3416 148.851 95.0172 148.702C94.7469 148.553 94.4766 148.553 94.4766 148.801Z" fill="black"/>
<path d="M29.2728 149.693C28.7862 150.782 29.435 151.871 30.7866 152.366C32.8952 153.109 34.355 151.03 32.733 149.544C31.8139 148.702 29.6512 148.801 29.2728 149.693Z" fill="black"/>
<path d="M91.5038 150.436C91.0713 151.079 91.7201 152.02 92.3689 151.673C93.0177 151.277 93.0177 149.94 92.3689 149.94C92.0445 149.94 91.666 150.138 91.5038 150.436Z" fill="black"/>
<path d="M118.861 151.574C118.374 152.168 118.483 152.366 119.348 152.564C120.483 152.812 120.699 152.564 119.942 151.524C119.618 151.029 119.402 151.029 118.861 151.574Z" fill="black"/>
<path d="M97.9908 151.921C97.8286 152.168 98.153 152.416 98.7478 152.416C99.3965 152.416 99.8831 152.168 99.8831 151.921C99.8831 151.624 99.5587 151.425 99.1262 151.425C98.6937 151.425 98.153 151.624 97.9908 151.921Z" fill="black"/>
<path d="M115.562 153.654C115.562 154.05 115.94 154.396 116.373 154.396C116.806 154.396 117.184 154.05 117.184 153.654C117.184 153.258 116.806 152.911 116.373 152.911C115.94 152.911 115.562 153.258 115.562 153.654Z" fill="black"/>
<path d="M75.5527 154.149C75.5527 154.545 75.8231 154.891 76.0934 154.891C76.4178 154.891 76.6341 154.545 76.6341 154.149C76.6341 153.753 76.4178 153.406 76.0934 153.406C75.8231 153.406 75.5527 153.753 75.5527 154.149Z" fill="black"/>
<path d="M79.7167 154.099C79.3923 154.842 79.7708 155.386 80.5277 155.386C81.1224 155.386 81.0684 154.05 80.4737 153.703C80.2033 153.554 79.8789 153.703 79.7167 154.099Z" fill="black"/>
<path d="M76.9584 156.624C77.1747 157.021 77.6613 157.367 78.0938 157.367C78.7967 157.367 78.7967 157.219 78.256 156.624C77.8775 156.228 77.391 155.882 77.1206 155.882C76.8503 155.882 76.7962 156.228 76.9584 156.624Z" fill="black"/>
<path d="M67.8763 161.724C61.9831 167.072 60.9559 168.607 66.3084 164.101C68.0925 162.616 70.5255 160.833 71.6609 160.14C74.2561 158.655 74.7967 157.961 73.9857 157.219C73.6073 156.872 71.8772 158.11 67.8763 161.724Z" fill="black"/>
<path d="M82.3117 159.348C82.4739 159.595 82.8523 159.843 83.1767 159.843C83.447 159.843 83.6633 159.595 83.6633 159.348C83.6633 159.051 83.2849 158.853 82.7983 158.853C82.3657 158.853 82.1495 159.051 82.3117 159.348Z" fill="black"/>
<path d="M85.069 161.229C84.0417 162.319 84.0417 164.349 85.1231 164.646C85.5015 164.794 85.934 164.151 86.0962 163.111C86.6369 160.685 86.2584 160.041 85.069 161.229Z" fill="black"/>
<path d="M49.9263 162.17C49.6019 162.863 49.656 162.913 50.1966 162.467C50.5751 162.121 50.7373 161.724 50.5751 161.576C50.4129 161.427 50.0885 161.675 49.9263 162.17Z" fill="black"/>
<path d="M53.3867 163.309C53.3867 163.556 53.657 163.804 53.9274 163.804C54.2518 163.804 54.468 163.556 54.468 163.309C54.468 163.012 54.2518 162.814 53.9274 162.814C53.657 162.814 53.3867 163.012 53.3867 163.309Z" fill="black"/>
<path d="M115.616 164.151C115.616 164.745 115.4 165.636 115.238 166.131C114.967 166.825 115.021 166.874 115.508 166.478C115.886 166.181 116.103 165.29 115.94 164.497C115.778 163.458 115.724 163.359 115.616 164.151Z" fill="black"/>
<path d="M52.8457 165.042C52.8457 165.438 53.116 165.785 53.3864 165.785C53.7108 165.785 53.927 165.438 53.927 165.042C53.927 164.646 53.7108 164.299 53.3864 164.299C53.116 164.299 52.8457 164.646 52.8457 165.042Z" fill="black"/>
<path d="M76.2558 165.438C75.6611 166.032 73.931 168.162 72.3631 170.093C69.7679 173.361 69.0651 173.955 67.8756 173.757C67.6594 173.757 67.6053 174.004 67.7675 174.351C67.8756 174.697 67.5512 175.44 66.9025 175.935C65.8211 176.826 65.8211 176.826 65.8211 175.589C65.8211 174.103 64.5776 172.964 63.4422 173.361C62.3069 173.757 60.4146 177.371 60.4146 179.154C60.4146 180.837 60.7389 180.986 62.1447 179.797C62.6853 179.352 63.6044 178.956 64.1992 178.906C65.3886 178.857 71.0655 173.707 74.2013 169.895C76.2018 167.369 76.364 167.32 78.4725 167.567C80.8514 167.864 83.6629 167.171 83.6629 166.23C83.6629 165.884 82.7978 165.785 80.9596 166.032C78.7429 166.329 78.2563 166.23 78.2563 165.636C78.2563 164.349 77.3912 164.25 76.2558 165.438Z" fill="black"/>
<path d="M85.8262 170.538C85.8262 170.934 86.0965 171.132 86.3668 170.983C86.6912 170.785 86.7994 170.439 86.6372 170.191C86.1506 169.498 85.8262 169.646 85.8262 170.538Z" fill="black"/>
<path d="M85.0689 172.568C84.7445 173.261 84.7986 173.31 85.3392 172.865C85.7177 172.518 85.8799 172.122 85.7177 171.974C85.5555 171.825 85.2311 172.073 85.0689 172.568Z" fill="black"/>
<path d="M115.67 172.221C115.832 172.618 116.427 173.162 117.076 173.459C117.725 173.707 118.265 174.202 118.265 174.499C118.265 174.796 118.806 175.44 119.455 175.985C120.536 176.876 120.59 176.876 120.266 176.034C120.049 175.539 119.887 174.4 119.887 173.558C119.887 172.667 119.671 172.221 119.455 172.519C118.914 173.261 116.697 173.063 115.994 172.172C115.562 171.578 115.508 171.578 115.67 172.221Z" fill="black"/>
<path d="M311.55 173.212C311.712 173.459 311.982 173.707 312.145 173.707C312.253 173.707 312.361 173.459 312.361 173.212C312.361 172.915 312.09 172.717 311.766 172.717C311.496 172.717 311.388 172.915 311.55 173.212Z" fill="black"/>
<path d="M85.0147 175.687C84.8525 175.935 84.9606 176.182 85.2309 176.182C85.5553 176.182 85.8257 175.935 85.8257 175.687C85.8257 175.39 85.7175 175.192 85.6094 175.192C85.4472 175.192 85.1769 175.39 85.0147 175.687Z" fill="black"/>
<path d="M45.9254 180.242C45.4928 180.738 45.4928 181.233 45.9794 182.074C46.7363 183.411 47.4933 183.51 48.2502 182.421C49.0071 181.332 46.8445 179.252 45.9254 180.242Z" fill="black"/>
<path d="M132.376 183.411C132.376 183.956 132.539 184.105 132.701 183.709C132.863 183.362 132.809 182.916 132.647 182.768C132.484 182.57 132.322 182.867 132.376 183.411Z" fill="black"/>
<path d="M135.133 190.889C133.836 194.949 134.052 196.434 135.782 195.84C136.431 195.592 136.539 195.246 136.215 194.404C135.944 193.76 135.836 192.325 135.999 191.136C136.269 188.561 135.944 188.462 135.133 190.889Z" fill="black"/>
<path d="M121.78 194.998C121.943 195.245 122.213 195.493 122.375 195.493C122.483 195.493 122.591 195.245 122.591 194.998C122.591 194.701 122.321 194.503 121.997 194.503C121.726 194.503 121.618 194.701 121.78 194.998Z" fill="black"/>
<path d="M93.4491 200.247C93.4491 200.791 93.6113 200.94 93.7735 200.544C93.9357 200.197 93.8816 199.751 93.7194 199.603C93.5572 199.405 93.395 199.702 93.4491 200.247Z" fill="black"/>
<path d="M291.816 199.949C291.113 200.346 291.167 200.445 291.978 200.445C292.465 200.445 292.897 200.197 292.897 199.949C292.897 199.355 292.843 199.355 291.816 199.949Z" fill="black"/>
<path d="M138.81 200.742C138.81 201.336 140.865 203.366 141.189 203.069C141.73 202.574 141.567 202.079 140.648 201.237C139.837 200.445 138.81 200.197 138.81 200.742Z" fill="black"/>
<path d="M60.253 205C59.0635 205.891 57.4416 207.921 56.3062 209.902C53.9273 214.309 53.8191 217.775 55.9277 223.32C57.4416 227.479 58.7932 229.163 60.3611 229.163C61.118 229.163 61.3343 229.41 61.118 230.153C60.6855 231.589 61.7668 231.342 63.8213 229.51C64.8486 228.668 67.0112 226.885 68.6873 225.598C72.3097 222.776 73.9316 219.904 73.9316 216.438C73.9316 213.764 74.8508 212.328 76.5809 212.328C77.6622 212.328 78.7976 211.387 78.7976 210.496C78.7976 210.1 78.1488 209.852 77.2297 209.852C76.3646 209.852 75.3914 209.506 75.013 209.11C74.6345 208.714 74.1479 208.367 73.8776 208.367C73.6613 208.367 72.8503 207.872 72.0934 207.228C66.9031 202.871 63.8754 202.277 60.253 205ZM75.6077 210.496C75.5536 210.694 75.5536 211.189 75.5536 211.585C75.5536 211.981 75.3374 212.328 75.067 212.328C74.4182 212.328 73.8235 210.892 74.256 210.298C74.5804 209.753 75.6618 209.902 75.6077 210.496Z" fill="black"/>
<path d="M12.0253 204.406C12.1875 204.654 12.6741 204.753 13.1067 204.555C14.242 204.208 14.1339 203.911 12.7823 203.911C12.1875 203.911 11.8091 204.109 12.0253 204.406Z" fill="black"/>
<path d="M301.819 204.406C301.657 204.653 301.765 204.901 302.035 204.901C302.36 204.901 302.63 204.653 302.63 204.406C302.63 204.109 302.522 203.911 302.414 203.911C302.251 203.911 301.981 204.109 301.819 204.406Z" fill="black"/>
<path d="M129.133 206.04C128.43 206.337 127.349 207.228 126.754 207.971L125.619 209.357L126.754 210.694C128.322 212.675 130.322 212.724 132.323 210.892C134.269 209.159 134.377 207.921 132.701 206.485C131.242 205.247 130.917 205.198 129.133 206.04Z" fill="black"/>
<path d="M25.271 208.169C25.271 208.615 25.6495 208.862 26.1901 208.763C27.5418 208.516 27.704 207.377 26.4064 207.377C25.7576 207.377 25.271 207.674 25.271 208.169Z" fill="black"/>
<path d="M110.425 209.357C110.587 209.605 111.02 209.852 111.29 209.852C111.614 209.852 111.669 209.605 111.506 209.357C111.344 209.06 110.912 208.862 110.641 208.862C110.317 208.862 110.263 209.06 110.425 209.357Z" fill="black"/>
<path d="M103.667 210.347C103.181 210.644 103.127 210.842 103.505 210.842C103.83 210.842 104.316 210.595 104.478 210.347C104.911 209.753 104.695 209.753 103.667 210.347Z" fill="black"/>
<path d="M112.047 210.496C111.831 210.991 111.777 211.535 111.993 211.684C112.534 212.179 112.966 211.486 112.696 210.496C112.48 209.654 112.48 209.654 112.047 210.496Z" fill="black"/>
<path d="M90.2596 210.942C89.8812 211.288 89.6108 211.734 89.6108 211.932C89.6108 212.526 91.1247 212.427 91.5572 211.783C92.0979 210.942 91.0166 210.248 90.2596 210.942Z" fill="black"/>
<path d="M0.131239 211.833C-0.247222 212.427 0.23937 213.318 0.996292 213.318C1.26662 213.318 1.48288 212.873 1.48288 212.328C1.48288 211.288 0.671897 210.991 0.131239 211.833Z" fill="black"/>
<path d="M77.4458 213.318C77.608 213.566 77.8784 213.813 78.0406 213.813C78.1487 213.813 78.2568 213.566 78.2568 213.318C78.2568 213.021 77.9865 212.823 77.6621 212.823C77.3918 212.823 77.2836 213.021 77.4458 213.318Z" fill="black"/>
<path d="M134.918 219.012C132.322 219.904 130.052 220.498 129.889 220.349C129.727 220.201 129.619 220.349 129.619 220.646C129.619 221.34 131.566 221.439 131.998 220.795C132.322 220.349 139.405 217.973 141.514 217.626C142.703 217.428 142.649 217.428 141.243 217.378C140.378 217.378 137.513 218.121 134.918 219.012Z" fill="black"/>
<path d="M277.597 218.814C277.976 219.161 278.408 219.31 278.57 219.161C278.733 219.012 278.462 218.715 277.922 218.567C277.165 218.27 277.111 218.319 277.597 218.814Z" fill="black"/>
<path d="M153.516 223.716C152.543 224.558 152.111 225.202 152.489 225.202C152.868 225.202 153.733 224.508 154.381 223.716C155.895 221.884 155.787 221.884 153.516 223.716Z" fill="black"/>
<path d="M137.783 226.786C137.729 227.578 137.999 228.172 138.269 228.172C138.918 228.172 138.918 227.776 138.269 226.439C137.837 225.548 137.783 225.598 137.783 226.786Z" fill="black"/>
<path d="M144.757 227.727C144.757 227.975 145.027 228.074 145.297 227.925C145.622 227.777 145.838 227.529 145.838 227.381C145.838 227.282 145.622 227.182 145.297 227.182C145.027 227.182 144.757 227.43 144.757 227.727Z" fill="black"/>
<path d="M145.298 229.163C145.298 229.46 145.677 229.658 146.109 229.658C146.542 229.658 146.92 229.559 146.92 229.46C146.92 229.361 146.542 229.163 146.109 228.965C145.677 228.816 145.298 228.915 145.298 229.163Z" fill="black"/>
<path d="M278.3 229.46C278.3 229.708 278.679 230.302 279.111 230.797C279.652 231.54 280.084 231.639 280.841 231.193C281.49 230.846 281.598 230.698 281.058 230.648C280.625 230.648 279.814 230.302 279.273 229.807C278.733 229.361 278.3 229.212 278.3 229.46Z" fill="black"/>
<path d="M249.646 231.143C249.646 231.391 249.916 231.638 250.186 231.638C250.511 231.638 250.727 231.391 250.727 231.143C250.727 230.846 250.511 230.648 250.186 230.648C249.916 230.648 249.646 230.846 249.646 231.143Z" fill="black"/>
<path d="M149.083 235.748C149.083 236.788 148.65 237.778 148.001 238.323C147.407 238.818 146.92 239.511 146.92 239.858C146.92 240.749 144.271 243.522 143.352 243.522C142.919 243.522 142.595 243.175 142.595 242.73C142.595 241.145 141.081 243.027 139.783 246.146C138.81 248.523 137.783 249.909 135.188 252.187C133.296 253.87 131.782 255.356 131.782 255.554C131.782 255.801 132.376 255.455 133.079 254.811C133.782 254.167 135.296 252.88 136.377 251.939C137.513 250.998 139.027 249.018 139.838 247.582C141.135 245.255 141.405 245.007 142 245.7C142.595 246.344 142.541 246.839 141.838 248.473C141.351 249.563 140.973 251.097 140.973 251.89C140.973 252.682 140.649 254.068 140.216 254.96C139.297 257.089 138.54 271.2 139.351 272.24C139.729 272.785 139.892 272.389 139.892 270.606C139.892 269.319 140.27 267.536 140.757 266.694C141.514 265.308 141.514 265.11 140.811 264.714C140.162 264.417 140.108 263.971 140.432 262.684C140.703 261.842 141.027 259.515 141.189 257.633C141.784 250.008 142.865 246.889 145.785 244.314C147.299 242.977 149.029 242.928 148.164 244.165C147.677 244.908 147.028 249.463 147.407 249.414C147.569 249.414 148.326 248.226 149.083 246.839C150.434 244.314 150.434 244.165 149.678 241.244C149.029 238.521 149.029 238.026 149.786 236.59C150.651 235.005 150.597 234.114 149.569 234.114C149.299 234.114 149.083 234.857 149.083 235.748Z" fill="black"/>
<path d="M121.239 237.085C121.077 237.382 121.293 237.432 121.726 237.283C122.699 236.937 122.861 236.59 122.104 236.59C121.78 236.59 121.401 236.788 121.239 237.085Z" fill="black"/>
<path d="M394.001 244.512C394.001 244.76 394.272 245.007 394.542 245.007C394.867 245.007 395.083 244.76 395.083 244.512C395.083 244.215 394.867 244.017 394.542 244.017C394.272 244.017 394.001 244.215 394.001 244.512Z" fill="black"/>
<path d="M297.223 247.483C297.223 247.731 297.602 247.978 298.088 247.978C298.521 247.978 298.737 247.731 298.575 247.483C298.413 247.186 298.034 246.988 297.71 246.988C297.439 246.988 297.223 247.186 297.223 247.483Z" fill="black"/>
<path d="M225.856 251.989C225.856 252.236 226.126 252.335 226.397 252.187C226.721 252.038 226.937 251.791 226.937 251.642C226.937 251.543 226.721 251.444 226.397 251.444C226.126 251.444 225.856 251.692 225.856 251.989Z" fill="black"/>
<path d="M147.46 253.92C147.46 255.306 147.568 255.455 148.271 254.91C148.92 254.415 148.974 254.118 148.433 253.474C148.055 253.029 147.676 252.583 147.622 252.484C147.514 252.385 147.46 252.979 147.46 253.92Z" fill="black"/>
<path d="M196.121 256.891C196.121 257.138 196.391 257.386 196.715 257.386C196.986 257.386 197.094 257.138 196.932 256.891C196.769 256.594 196.499 256.395 196.337 256.395C196.229 256.395 196.121 256.594 196.121 256.891Z" fill="black"/>
<path d="M178.278 261.545C178.278 261.991 178.549 262.337 178.819 262.337C179.143 262.337 179.36 262.139 179.36 261.892C179.36 261.594 179.143 261.248 178.819 261.099C178.549 260.951 178.278 261.149 178.278 261.545Z" fill="black"/>
<path d="M126.428 264.269C125.996 264.516 125.942 264.813 126.266 265.011C126.536 265.16 127.077 264.962 127.456 264.566C128.213 263.773 127.618 263.575 126.428 264.269Z" fill="black"/>
<path d="M118.643 264.664C117.994 265.209 118.21 265.803 119.021 265.803C119.4 265.803 120.049 265.457 120.427 265.061C120.968 264.466 120.914 264.318 120.049 264.318C119.454 264.318 118.805 264.466 118.643 264.664Z" fill="black"/>
<path d="M99.1268 270.705C98.9105 270.953 99.0186 271.299 99.289 271.448C99.5593 271.646 99.9378 271.547 100.1 271.299C100.316 271.052 100.208 270.705 99.9378 270.557C99.6674 270.359 99.289 270.458 99.1268 270.705Z" fill="black"/>
<path d="M215.367 271.696C215.205 271.943 215.421 272.241 215.854 272.439C216.286 272.587 216.665 272.488 216.665 272.241C216.665 271.597 215.692 271.151 215.367 271.696Z" fill="black"/>
<path d="M57.4405 272.24C57.2783 272.488 57.3864 272.735 57.6567 272.735C57.9811 272.735 58.2515 272.488 58.2515 272.24C58.2515 271.943 58.1433 271.745 58.0352 271.745C57.873 271.745 57.6027 271.943 57.4405 272.24Z" fill="black"/>
<path d="M190.713 276.498C190.713 276.894 190.984 277.092 191.254 276.944C191.578 276.795 191.795 276.449 191.795 276.152C191.795 275.904 191.578 275.706 191.254 275.706C190.984 275.706 190.713 276.053 190.713 276.498Z" fill="black"/>
<path d="M138.108 276.993C137.513 277.538 137.676 279.568 138.324 279.964C138.649 280.113 139.298 279.915 139.784 279.469C140.487 278.875 140.541 278.429 140.109 277.835C139.46 276.845 138.649 276.548 138.108 276.993Z" fill="black"/>
<path d="M99.3416 299.324C97.1249 301.206 96.6924 303.681 98.2603 305.563C100.639 308.286 104.64 306.751 105.289 302.889C105.775 299.869 104.748 297.987 102.586 297.987C101.612 297.987 100.369 298.532 99.3416 299.324Z" fill="black"/>
<path d="M33.7064 301.899C32.4089 303.236 33.1117 304.276 34.5174 303.137C35.5447 302.295 35.9231 300.958 35.1122 300.958C34.8418 300.958 34.193 301.404 33.7064 301.899Z" fill="black"/>
<path d="M329.663 306.405C329.663 306.653 329.933 306.9 330.203 306.9C330.528 306.9 330.744 306.653 330.744 306.405C330.744 306.108 330.528 305.91 330.203 305.91C329.933 305.91 329.663 306.108 329.663 306.405Z" fill="black"/>
<path d="M26.083 309.375C25.9208 309.623 26.029 309.871 26.2993 309.871C26.6237 309.871 26.894 309.623 26.894 309.375C26.894 309.078 26.7859 308.88 26.6778 308.88C26.5156 308.88 26.2452 309.078 26.083 309.375Z" fill="black"/>
<path d="M101.505 312.891C101.505 313.139 101.775 313.238 102.046 313.09C102.37 312.941 102.586 312.693 102.586 312.545C102.586 312.446 102.37 312.347 102.046 312.347C101.775 312.347 101.505 312.594 101.505 312.891Z" fill="black"/>
<path d="M100.261 314.674C100.045 314.822 99.8823 315.219 99.8823 315.516C99.8823 315.813 100.153 315.763 100.531 315.417C100.856 315.12 101.018 314.723 100.91 314.575C100.747 314.426 100.423 314.476 100.261 314.674Z" fill="black"/>
</svg>
